<svg width="90" height="90" viewBox="0 0 90 90" fill="none" xmlns="http://www.w3.org/2000/svg">
<path fill-rule="evenodd" clip-rule="evenodd" d="M0 20C0 8.9543 8.9543 0 20 0H70C81.0457 0 90 8.9543 90 20V70C90 81.0457 81.0457 90 70 90H20C8.9543 90 0 81.0457 0 70V20Z" fill="white"/>
<path fill-rule="evenodd" clip-rule="evenodd" d="M44.5736 23.0173C44.4554 23.0387 44.2427 23.1014 44.1008 23.1567C43.7698 23.2856 24.1588 34.6546 23.8128 34.9182C23.6698 35.0271 23.4377 35.325 23.2972 35.58C23.0773 35.9787 23.0415 36.1346 23.0415 36.6913C23.0415 37.2478 23.0774 37.4041 23.2965 37.8014C23.7494 38.6229 24.4448 39.0228 25.4206 39.0228H25.921V42.5631V46.1034H24.8023H23.6836L23.3625 46.3988L23.0415 46.6942L23.0142 48.1801C22.984 49.8204 23.0301 50.0497 23.4505 50.3503C23.6585 50.4991 23.8711 50.5424 24.5566 50.5755L25.4053 50.6165V51.6023C25.4053 53.0458 25.633 53.3566 26.6903 53.3566H27.2104V56.4984V59.64L26.6526 59.6756C26.0522 59.7141 25.7073 59.895 25.514 60.2728C25.4477 60.4024 25.4073 60.8618 25.4066 61.495L25.4053 62.5096H24.6014C23.907 62.5096 23.7579 62.5364 23.5067 62.7065C23.0401 63.0224 23.0011 63.1798 23 64.7547C22.9992 66.0327 23.017 66.2089 23.1726 66.4653C23.5145 67.0286 22.9404 66.9998 33.8222 66.9998C40.8827 66.9998 43.7658 66.9724 43.9154 66.9039C44.1198 66.8103 44.3157 66.5017 44.3157 66.2734C44.3157 66.2108 44.2355 66.0572 44.1376 65.932L43.9594 65.7045H34.1236H24.2878V64.7547V63.8048H45.0034H65.719V64.7547V65.7045H56.0584C46.9696 65.7045 46.3867 65.7135 46.2112 65.8563C45.9311 66.0841 45.9457 66.5431 46.2411 66.7983L46.4743 66.9998H56.2713C67.0573 66.9998 66.4895 67.0285 66.8372 66.4653C67.0006 66.2006 67.0118 66.0661 66.9895 64.6482L66.9653 63.1169L66.6845 62.8349C66.4082 62.5573 66.3893 62.5524 65.5026 62.5233L64.6015 62.4939V61.4341C64.6015 60.4776 64.5834 60.351 64.4152 60.1362C64.1706 59.8239 63.7626 59.6601 63.229 59.6601H62.7964V56.5084V53.3566H63.3165C64.3738 53.3566 64.6015 53.0458 64.6015 51.6023V50.6165L65.4502 50.5755C66.1357 50.5424 66.3483 50.4991 66.5563 50.3503C66.9767 50.0497 67.0227 49.8204 66.9926 48.1801L66.9653 46.6942L66.6443 46.3988L66.3231 46.1034H65.2045H64.0858V42.5631V39.0228H64.5862C65.562 39.0228 66.2574 38.6229 66.7103 37.8014C66.9294 37.4041 66.9653 37.2478 66.9653 36.6913C66.9653 36.1346 66.9295 35.9787 66.7096 35.58C66.5691 35.325 66.3338 35.0242 66.187 34.9117C66.0402 34.7992 61.9584 32.4109 57.1163 29.6045C52.2744 26.798 47.8292 24.2215 47.2383 23.8788C46.6473 23.5361 46.0633 23.2126 45.9406 23.1599C45.6748 23.0457 44.8762 22.9624 44.5736 23.0173ZM55.3053 30.0468C60.7256 33.1881 65.2678 35.8633 65.3992 35.9916C66.0417 36.6191 65.5741 37.7275 64.6669 37.7275C64.3382 37.7275 65.0236 38.1145 53.1424 31.2198C48.9909 28.8107 45.4614 26.7759 45.2988 26.6981C45.0299 26.5693 44.9783 26.5686 44.724 26.6908C44.5704 26.7647 40.4412 29.1482 35.5482 31.9875C25.0233 38.0948 25.6773 37.7275 25.3254 37.7275C24.4673 37.7275 23.9802 36.6484 24.5589 36.0296C24.6645 35.9167 25.4106 35.4417 26.217 34.974C41.3808 26.1799 44.478 24.393 44.6596 24.3341C44.7778 24.2956 45.0041 24.2803 45.1624 24.2998C45.3431 24.3221 49.1214 26.4629 55.3053 30.0468ZM53.9429 33.177L62.7534 38.2915L62.7758 42.1974L62.7981 46.1034H54.5416H46.2849L46.0644 46.3249C45.8864 46.5037 45.8539 46.5997 45.8966 46.8214C45.9256 46.9726 46.031 47.1644 46.1306 47.2475C46.3008 47.3894 46.9002 47.3986 56.0154 47.3986H65.719V48.3484V49.2983H45.0034H24.2878V48.3484V47.3986H34.0908H43.8938L44.1047 47.1866C44.3737 46.9165 44.3737 46.5854 44.1047 46.3153L43.8938 46.1034H35.5512H27.2086L27.231 42.1997L27.2533 38.2961L29.1444 37.1993C30.1845 36.5961 34.1492 34.2941 37.9549 32.0839C41.7607 29.8735 44.9325 28.0645 45.0034 28.0639C45.0743 28.0632 49.0971 30.3641 53.9429 33.177ZM43.9128 30.7313C43.3406 31.0209 42.9694 31.3872 42.6618 31.9662C42.5 32.2707 42.4681 32.4657 42.4679 33.151C42.4677 33.898 42.4904 34.0125 42.7209 34.4306C43.0288 34.9889 43.427 35.3527 44.0375 35.6335C44.6523 35.9162 45.6984 35.8928 46.2927 35.583C48.2832 34.5455 48.2832 31.7568 46.2927 30.719C45.9963 30.5645 45.7353 30.5109 45.1753 30.4898C44.5002 30.4642 44.4043 30.4826 43.9128 30.7313ZM45.8671 31.964C46.7103 32.5349 46.7103 33.7671 45.8671 34.3381C45.4548 34.6171 44.7264 34.6096 44.305 34.322C43.5151 33.7828 43.5151 32.5193 44.305 31.9801C44.7264 31.6924 45.4548 31.685 45.8671 31.964ZM52.7269 37.8471C52.3249 38.0485 52.307 38.1938 52.3306 41.0646C52.3511 43.5706 52.3639 43.7664 52.5164 43.9357C52.7301 44.1728 53.1955 44.1773 53.4271 43.9446C53.5721 43.799 53.5991 43.6568 53.5991 43.038C53.5991 42.6343 53.6219 42.304 53.6498 42.304C53.6777 42.304 54.1322 42.7116 54.6598 43.2096C55.4697 43.9743 55.6625 44.1155 55.8984 44.1163C56.2606 44.1176 56.5212 43.8569 56.523 43.4913C56.5243 43.2425 56.3868 43.078 55.3122 42.042L54.0999 40.8734L55.2248 39.8102C56.4735 38.63 56.5631 38.4522 56.1291 38.0162C55.7832 37.6687 55.5174 37.7799 54.5498 38.6768C54.0884 39.1045 53.6856 39.4545 53.6549 39.4545C53.6242 39.4545 53.5991 39.1497 53.5991 38.7771C53.5991 38.2393 53.568 38.0727 53.4486 37.969C53.2307 37.7796 52.9549 37.733 52.7269 37.8471ZM33.8553 38.0223L33.6141 38.2308V40.9923C33.6141 43.5868 33.624 43.7649 33.7779 43.9356C33.9303 44.1047 34.0288 44.1172 35.1962 44.1154C36.6506 44.1133 36.9548 44.022 37.4517 43.4389C37.972 42.8282 38.0922 42.0553 37.7758 41.3542C37.6794 41.1405 37.5226 40.8823 37.4274 40.7804C37.2604 40.6017 37.2594 40.5804 37.3961 40.1759C37.7236 39.208 37.1661 38.1824 36.16 37.9016C35.9889 37.8539 35.4547 37.8146 34.9728 37.8144C34.1699 37.8139 34.0762 37.8313 33.8553 38.0223ZM41.4332 37.8961C41.337 37.9352 41.2123 38.023 41.156 38.0911C41.0373 38.2347 39.0724 43.3831 39.0724 43.5504C39.0724 43.791 39.4256 44.1173 39.6859 44.1173C40.0986 44.1173 40.2551 43.9763 40.4558 43.4233L40.6444 42.9034L41.7168 42.9275L42.789 42.9516L42.9574 43.3834C43.1821 43.96 43.338 44.1173 43.6844 44.1173C44.0301 44.1173 44.3157 43.8621 44.3157 43.5533C44.3157 43.3773 43.1395 40.1249 42.4653 38.4366C42.2628 37.9295 41.864 37.7206 41.4332 37.8961ZM46.0619 37.9008C45.9587 37.9426 45.833 38.0542 45.7826 38.1487C45.7234 38.2599 45.691 39.2828 45.691 41.0462C45.691 43.6568 45.6983 43.7792 45.863 43.9446C46.0945 44.1773 46.5599 44.1728 46.7737 43.9358C46.9181 43.7758 46.9425 43.5709 46.9804 42.2009L47.0234 40.6474L48.1277 42.2563C48.7351 43.1413 49.3262 43.9273 49.4412 44.0031C49.7563 44.2104 50.1641 44.0671 50.3488 43.6841C50.4787 43.4147 50.4885 43.1136 50.4427 40.797C50.3917 38.2106 50.3916 38.2106 50.1845 38.0026C50.0192 37.8365 49.9225 37.8056 49.705 37.8494C49.1945 37.9519 49.1764 38.0122 49.1293 39.7667L49.0863 41.3685L47.927 39.6821C46.9147 38.2094 46.5567 37.797 46.3102 37.8193C46.2769 37.8223 46.1653 37.859 46.0619 37.9008ZM36.0639 39.2818C36.1584 39.3768 36.2358 39.5322 36.2358 39.6272C36.2358 39.9651 35.9368 40.1453 35.3762 40.1453H34.8605V39.6848C34.8605 39.4314 34.8863 39.1983 34.9178 39.1667C34.9493 39.135 35.1814 39.1091 35.4336 39.1091C35.7774 39.1091 35.935 39.1523 36.0639 39.2818ZM42.0275 40.9127C42.1542 41.2635 42.2419 41.5666 42.2223 41.5863C42.2027 41.6059 41.9561 41.6103 41.6741 41.596L41.1616 41.57L41.4252 40.8594C41.5703 40.4686 41.7132 40.1771 41.743 40.2118C41.7727 40.2465 41.9007 40.5618 42.0275 40.9127ZM36.4546 41.6525C36.5876 41.7861 36.6656 41.9631 36.6656 42.1313C36.6656 42.2995 36.5876 42.4765 36.4546 42.6101C36.2655 42.8001 36.1717 42.8221 35.552 42.8221H34.8605V42.1313V41.4405H35.552C36.1717 41.4405 36.2655 41.4625 36.4546 41.6525ZM34.6886 51.3275V52.0614H30.6916H26.6946V51.3275V50.5935H30.6916H34.6886V51.3275ZM39.6761 51.3922C39.6801 52.9377 39.8883 53.2722 40.8951 53.3509L41.5221 53.3998L41.5447 56.5183L41.5673 59.6368L40.9808 59.6789C39.9323 59.7542 39.7524 60.008 39.6932 61.495L39.6528 62.5096H37.8154H35.9779V61.557C35.9779 60.085 35.7651 59.7648 34.7316 59.6815L34.1728 59.6364V56.4965V53.3566H34.7329C35.2505 53.3566 35.3171 53.3343 35.6139 53.0612L35.935 52.7659L35.9635 51.6797L35.9919 50.5935H37.8331H39.6741L39.6761 51.3922ZM48.9574 51.3275V52.0614H45.0034H41.0494V51.3275V50.5935H45.0034H48.9574V51.3275ZM54.0433 51.6797L54.0718 52.7659L54.3929 53.0612C54.6897 53.3343 54.7563 53.3566 55.2739 53.3566H55.8339V56.4965V59.6364L55.2752 59.6815C54.2417 59.7648 54.0288 60.085 54.0288 61.557V62.5096H52.1378H50.2467V61.4651C50.2467 59.992 50.0844 59.755 49.0229 59.6787L48.4395 59.6368L48.4621 56.5183L48.4846 53.3998L49.1206 53.3502C49.6981 53.3051 49.7791 53.2752 50.0017 53.025C50.2434 52.7532 50.2467 52.7348 50.2467 51.6715V50.5935H52.1307H54.0148L54.0433 51.6797ZM63.3122 51.3275V52.0614H59.3152H55.3182V51.3275V50.5935H59.3152H63.3122V51.3275ZM32.8835 56.5084V59.6601H30.6916H28.4997V56.5084V53.3566H30.6916H32.8835V56.5084ZM47.1523 56.5084V59.6601H45.0034H42.8545V56.5084V53.3566H45.0034H47.1523V56.5084ZM61.5071 56.5084V59.6601H59.3152H57.1233V56.5084V53.3566H59.3152H61.5071V56.5084ZM34.6705 61.7541L34.6953 62.5096H30.695H26.6946V61.7316V60.9536L30.6701 60.9761L34.6456 60.9985L34.6705 61.7541ZM48.9574 61.7325V62.5096H45.0034H41.0494V61.7325V60.9553H45.0034H48.9574V61.7325ZM63.3122 61.7325V62.5096H59.3152H55.3182V61.7901C55.3182 61.3942 55.344 61.0445 55.3755 61.0129C55.407 60.9812 57.2056 60.9553 59.3725 60.9553H63.3122V61.7325Z" fill="black"/>
<path fill-rule="evenodd" clip-rule="evenodd" d="M44.5736 23.0173C44.4554 23.0387 44.2427 23.1014 44.1008 23.1567C43.7698 23.2856 24.1588 34.6546 23.8128 34.9182C23.6698 35.0271 23.4377 35.325 23.2972 35.58C23.0773 35.9787 23.0415 36.1346 23.0415 36.6913C23.0415 37.2478 23.0774 37.4041 23.2965 37.8014C23.7494 38.6229 24.4448 39.0228 25.4206 39.0228H25.921V42.5631V46.1034H24.8023H23.6836L23.3625 46.3988L23.0415 46.6942L23.0142 48.1801C22.984 49.8204 23.0301 50.0497 23.4505 50.3503C23.6585 50.4991 23.8711 50.5424 24.5566 50.5755L25.4053 50.6165V51.6023C25.4053 53.0458 25.633 53.3566 26.6903 53.3566H27.2104V56.4984V59.64L26.6526 59.6756C26.0522 59.7141 25.7073 59.895 25.514 60.2728C25.4477 60.4024 25.4073 60.8618 25.4066 61.495L25.4053 62.5096H24.6014C23.907 62.5096 23.7579 62.5364 23.5067 62.7065C23.0401 63.0224 23.0011 63.1798 23 64.7547C22.9992 66.0327 23.017 66.2089 23.1726 66.4653C23.5145 67.0286 22.9404 66.9998 33.8222 66.9998C40.8827 66.9998 43.7658 66.9724 43.9154 66.9039C44.1198 66.8103 44.3157 66.5017 44.3157 66.2734C44.3157 66.2108 44.2355 66.0572 44.1376 65.932L43.9594 65.7045H34.1236H24.2878V64.7547V63.8048H45.0034H65.719V64.7547V65.7045H56.0584C46.9696 65.7045 46.3867 65.7135 46.2112 65.8563C45.9311 66.0841 45.9457 66.5431 46.2411 66.7983L46.4743 66.9998H56.2713C67.0573 66.9998 66.4895 67.0285 66.8372 66.4653C67.0006 66.2006 67.0118 66.0661 66.9895 64.6482L66.9653 63.1169L66.6845 62.8349C66.4082 62.5573 66.3893 62.5524 65.5026 62.5233L64.6015 62.4939V61.4341C64.6015 60.4776 64.5834 60.351 64.4152 60.1362C64.1706 59.8239 63.7626 59.6601 63.229 59.6601H62.7964V56.5084V53.3566H63.3165C64.3738 53.3566 64.6015 53.0458 64.6015 51.6023V50.6165L65.4502 50.5755C66.1357 50.5424 66.3483 50.4991 66.5563 50.3503C66.9767 50.0497 67.0227 49.8204 66.9926 48.1801L66.9653 46.6942L66.6443 46.3988L66.3231 46.1034H65.2045H64.0858V42.5631V39.0228H64.5862C65.562 39.0228 66.2574 38.6229 66.7103 37.8014C66.9294 37.4041 66.9653 37.2478 66.9653 36.6913C66.9653 36.1346 66.9295 35.9787 66.7096 35.58C66.5691 35.325 66.3338 35.0242 66.187 34.9117C66.0402 34.7992 61.9584 32.4109 57.1163 29.6045C52.2744 26.798 47.8292 24.2215 47.2383 23.8788C46.6473 23.5361 46.0633 23.2126 45.9406 23.1599C45.6748 23.0457 44.8762 22.9624 44.5736 23.0173ZM55.3053 30.0468C60.7256 33.1881 65.2678 35.8633 65.3992 35.9916C66.0417 36.6191 65.5741 37.7275 64.6669 37.7275C64.3382 37.7275 65.0236 38.1145 53.1424 31.2198C48.9909 28.8107 45.4614 26.7759 45.2988 26.6981C45.0299 26.5693 44.9783 26.5686 44.724 26.6908C44.5704 26.7647 40.4412 29.1482 35.5482 31.9875C25.0233 38.0948 25.6773 37.7275 25.3254 37.7275C24.4673 37.7275 23.9802 36.6484 24.5589 36.0296C24.6645 35.9167 25.4106 35.4417 26.217 34.974C41.3808 26.1799 44.478 24.393 44.6596 24.3341C44.7778 24.2956 45.0041 24.2803 45.1624 24.2998C45.3431 24.3221 49.1214 26.4629 55.3053 30.0468ZM53.9429 33.177L62.7534 38.2915L62.7758 42.1974L62.7981 46.1034H54.5416H46.2849L46.0644 46.3249C45.8864 46.5037 45.8539 46.5997 45.8966 46.8214C45.9256 46.9726 46.031 47.1644 46.1306 47.2475C46.3008 47.3894 46.9002 47.3986 56.0154 47.3986H65.719V48.3484V49.2983H45.0034H24.2878V48.3484V47.3986H34.0908H43.8938L44.1047 47.1866C44.3737 46.9165 44.3737 46.5854 44.1047 46.3153L43.8938 46.1034H35.5512H27.2086L27.231 42.1997L27.2533 38.2961L29.1444 37.1993C30.1845 36.5961 34.1492 34.2941 37.9549 32.0839C41.7607 29.8735 44.9325 28.0645 45.0034 28.0639C45.0743 28.0632 49.0971 30.3641 53.9429 33.177ZM43.9128 30.7313C43.3406 31.0209 42.9694 31.3872 42.6618 31.9662C42.5 32.2707 42.4681 32.4657 42.4679 33.151C42.4677 33.898 42.4904 34.0125 42.7209 34.4306C43.0288 34.9889 43.427 35.3527 44.0375 35.6335C44.6523 35.9162 45.6984 35.8928 46.2927 35.583C48.2832 34.5455 48.2832 31.7568 46.2927 30.719C45.9963 30.5645 45.7353 30.5109 45.1753 30.4898C44.5002 30.4642 44.4043 30.4826 43.9128 30.7313ZM45.8671 31.964C46.7103 32.5349 46.7103 33.7671 45.8671 34.3381C45.4548 34.6171 44.7264 34.6096 44.305 34.322C43.5151 33.7828 43.5151 32.5193 44.305 31.9801C44.7264 31.6924 45.4548 31.685 45.8671 31.964ZM52.7269 37.8471C52.3249 38.0485 52.307 38.1938 52.3306 41.0646C52.3511 43.5706 52.3639 43.7664 52.5164 43.9357C52.7301 44.1728 53.1955 44.1773 53.4271 43.9446C53.5721 43.799 53.5991 43.6568 53.5991 43.038C53.5991 42.6343 53.6219 42.304 53.6498 42.304C53.6777 42.304 54.1322 42.7116 54.6598 43.2096C55.4697 43.9743 55.6625 44.1155 55.8984 44.1163C56.2606 44.1176 56.5212 43.8569 56.523 43.4913C56.5243 43.2425 56.3868 43.078 55.3122 42.042L54.0999 40.8734L55.2248 39.8102C56.4735 38.63 56.5631 38.4522 56.1291 38.0162C55.7832 37.6687 55.5174 37.7799 54.5498 38.6768C54.0884 39.1045 53.6856 39.4545 53.6549 39.4545C53.6242 39.4545 53.5991 39.1497 53.5991 38.7771C53.5991 38.2393 53.568 38.0727 53.4486 37.969C53.2307 37.7796 52.9549 37.733 52.7269 37.8471ZM33.8553 38.0223L33.6141 38.2308V40.9923C33.6141 43.5868 33.624 43.7649 33.7779 43.9356C33.9303 44.1047 34.0288 44.1172 35.1962 44.1154C36.6506 44.1133 36.9548 44.022 37.4517 43.4389C37.972 42.8282 38.0922 42.0553 37.7758 41.3542C37.6794 41.1405 37.5226 40.8823 37.4274 40.7804C37.2604 40.6017 37.2594 40.5804 37.3961 40.1759C37.7236 39.208 37.1661 38.1824 36.16 37.9016C35.9889 37.8539 35.4547 37.8146 34.9728 37.8144C34.1699 37.8139 34.0762 37.8313 33.8553 38.0223ZM41.4332 37.8961C41.337 37.9352 41.2123 38.023 41.156 38.0911C41.0373 38.2347 39.0724 43.3831 39.0724 43.5504C39.0724 43.791 39.4256 44.1173 39.6859 44.1173C40.0986 44.1173 40.2551 43.9763 40.4558 43.4233L40.6444 42.9034L41.7168 42.9275L42.789 42.9516L42.9574 43.3834C43.1821 43.96 43.338 44.1173 43.6844 44.1173C44.0301 44.1173 44.3157 43.8621 44.3157 43.5533C44.3157 43.3773 43.1395 40.1249 42.4653 38.4366C42.2628 37.9295 41.864 37.7206 41.4332 37.8961ZM46.0619 37.9008C45.9587 37.9426 45.833 38.0542 45.7826 38.1487C45.7234 38.2599 45.691 39.2828 45.691 41.0462C45.691 43.6568 45.6983 43.7792 45.863 43.9446C46.0945 44.1773 46.5599 44.1728 46.7737 43.9358C46.9181 43.7758 46.9425 43.5709 46.9804 42.2009L47.0234 40.6474L48.1277 42.2563C48.7351 43.1413 49.3262 43.9273 49.4412 44.0031C49.7563 44.2104 50.1641 44.0671 50.3488 43.6841C50.4787 43.4147 50.4885 43.1136 50.4427 40.797C50.3917 38.2106 50.3916 38.2106 50.1845 38.0026C50.0192 37.8365 49.9225 37.8056 49.705 37.8494C49.1945 37.9519 49.1764 38.0122 49.1293 39.7667L49.0863 41.3685L47.927 39.6821C46.9147 38.2094 46.5567 37.797 46.3102 37.8193C46.2769 37.8223 46.1653 37.859 46.0619 37.9008ZM36.0639 39.2818C36.1584 39.3768 36.2358 39.5322 36.2358 39.6272C36.2358 39.9651 35.9368 40.1453 35.3762 40.1453H34.8605V39.6848C34.8605 39.4314 34.8863 39.1983 34.9178 39.1667C34.9493 39.135 35.1814 39.1091 35.4336 39.1091C35.7774 39.1091 35.935 39.1523 36.0639 39.2818ZM42.0275 40.9127C42.1542 41.2635 42.2419 41.5666 42.2223 41.5863C42.2027 41.6059 41.9561 41.6103 41.6741 41.596L41.1616 41.57L41.4252 40.8594C41.5703 40.4686 41.7132 40.1771 41.743 40.2118C41.7727 40.2465 41.9007 40.5618 42.0275 40.9127ZM36.4546 41.6525C36.5876 41.7861 36.6656 41.9631 36.6656 42.1313C36.6656 42.2995 36.5876 42.4765 36.4546 42.6101C36.2655 42.8001 36.1717 42.8221 35.552 42.8221H34.8605V42.1313V41.4405H35.552C36.1717 41.4405 36.2655 41.4625 36.4546 41.6525ZM34.6886 51.3275V52.0614H30.6916H26.6946V51.3275V50.5935H30.6916H34.6886V51.3275ZM39.6761 51.3922C39.6801 52.9377 39.8883 53.2722 40.8951 53.3509L41.5221 53.3998L41.5447 56.5183L41.5673 59.6368L40.9808 59.6789C39.9323 59.7542 39.7524 60.008 39.6932 61.495L39.6528 62.5096H37.8154H35.9779V61.557C35.9779 60.085 35.7651 59.7648 34.7316 59.6815L34.1728 59.6364V56.4965V53.3566H34.7329C35.2505 53.3566 35.3171 53.3343 35.6139 53.0612L35.935 52.7659L35.9635 51.6797L35.9919 50.5935H37.8331H39.6741L39.6761 51.3922ZM48.9574 51.3275V52.0614H45.0034H41.0494V51.3275V50.5935H45.0034H48.9574V51.3275ZM54.0433 51.6797L54.0718 52.7659L54.3929 53.0612C54.6897 53.3343 54.7563 53.3566 55.2739 53.3566H55.8339V56.4965V59.6364L55.2752 59.6815C54.2417 59.7648 54.0288 60.085 54.0288 61.557V62.5096H52.1378H50.2467V61.4651C50.2467 59.992 50.0844 59.755 49.0229 59.6787L48.4395 59.6368L48.4621 56.5183L48.4846 53.3998L49.1206 53.3502C49.6981 53.3051 49.7791 53.2752 50.0017 53.025C50.2434 52.7532 50.2467 52.7348 50.2467 51.6715V50.5935H52.1307H54.0148L54.0433 51.6797ZM63.3122 51.3275V52.0614H59.3152H55.3182V51.3275V50.5935H59.3152H63.3122V51.3275ZM32.8835 56.5084V59.6601H30.6916H28.4997V56.5084V53.3566H30.6916H32.8835V56.5084ZM47.1523 56.5084V59.6601H45.0034H42.8545V56.5084V53.3566H45.0034H47.1523V56.5084ZM61.5071 56.5084V59.6601H59.3152H57.1233V56.5084V53.3566H59.3152H61.5071V56.5084ZM34.6705 61.7541L34.6953 62.5096H30.695H26.6946V61.7316V60.9536L30.6701 60.9761L34.6456 60.9985L34.6705 61.7541ZM48.9574 61.7325V62.5096H45.0034H41.0494V61.7325V60.9553H45.0034H48.9574V61.7325ZM63.3122 61.7325V62.5096H59.3152H55.3182V61.7901C55.3182 61.3942 55.344 61.0445 55.3755 61.0129C55.407 60.9812 57.2056 60.9553 59.3725 60.9553H63.3122V61.7325Z" fill="url(#paint0_linear_416_1218)"/>
<defs>
<linearGradient id="paint0_linear_416_1218" x1="31.8587" y1="31.6026" x2="65.6704" y2="32.9611" gradientUnits="userSpaceOnUse">
<stop stop-color="#006FFB"/>
<stop offset="1" stop-color="#64E8A4"/>
</linearGradient>
</defs>
</svg>
