<svg width="90" height="90" viewBox="0 0 90 90" fill="none" xmlns="http://www.w3.org/2000/svg">
<path fill-rule="evenodd" clip-rule="evenodd" d="M0 20C0 8.9543 8.9543 0 20 0H70C81.0457 0 90 8.9543 90 20V70C90 81.0457 81.0457 90 70 90H20C8.9543 90 0 81.0457 0 70V20Z" fill="white"/>
<path fill-rule="evenodd" clip-rule="evenodd" d="M34.2239 23.0669C32.8887 23.3839 31.7896 24.6086 31.5879 26.0042C31.4787 26.7596 31.4859 30.5399 31.5971 30.8591C31.6819 31.1028 31.9756 31.3138 32.2297 31.3138C32.292 31.3138 32.4418 31.236 32.5626 31.141L32.7823 30.968L32.8121 28.4535C32.8445 25.7293 32.8588 25.6394 33.3505 25.0558C33.4808 24.9012 33.767 24.669 33.9865 24.5398L34.3857 24.305H44.9986H55.6115L56.0107 24.5398C56.4606 24.8046 56.7942 25.167 57.0111 25.6269C57.1487 25.9186 57.1583 27.1817 57.1583 44.9874C57.1583 62.7931 57.1487 64.0561 57.0111 64.3478C56.7942 64.8077 56.4606 65.1701 56.0107 65.4349L55.6115 65.6697L53.2483 65.6963C50.98 65.722 50.8774 65.7304 50.6917 65.9049C50.4299 66.1511 50.4353 66.5694 50.7037 66.8217C50.9081 67.0138 50.9207 67.0146 53.3462 66.9872L55.7834 66.9596L56.3611 66.6857C57.4887 66.1512 58.237 65.164 58.407 63.9863C58.5136 63.2485 58.5136 26.7262 58.407 25.9884C58.237 24.8107 57.4887 23.8235 56.3611 23.289L55.7834 23.0151L45.1704 23.0014C38.9471 22.9933 34.4195 23.0205 34.2239 23.0669ZM35.8328 25.9334C35.3064 26.0982 34.9703 26.3727 34.6845 26.8712L34.4303 27.3149L34.4294 44.949L34.4286 62.583L34.6523 63.0323C34.9131 63.5559 35.2902 63.8725 35.8563 64.043C36.4475 64.2211 53.5379 64.2246 54.1282 64.0467C54.6819 63.8801 55.0953 63.5334 55.3495 63.0229L55.5685 62.583V44.9874V27.3917L55.3448 26.9424C55.084 26.4189 54.707 26.1022 54.1408 25.9318C53.6515 25.7844 51.0671 25.7617 50.6973 25.9015C50.2702 26.063 49.9774 26.4322 49.4599 27.4618C49.1816 28.0156 48.8786 28.5089 48.7865 28.5583C48.5566 28.6814 41.4405 28.6814 41.2107 28.5583C41.1185 28.5089 40.8155 28.0156 40.5373 27.4618C40.0198 26.4322 39.727 26.063 39.2998 25.9015C38.9502 25.7692 36.2785 25.7939 35.8328 25.9334ZM41.8466 25.9122C41.4333 26.1122 41.4101 26.7949 41.8092 27.0087C41.9122 27.0639 42.6275 27.1 43.618 27.1C45.1418 27.1 45.2684 27.0879 45.4283 26.928C45.6842 26.6719 45.6574 26.2116 45.3737 25.9883C45.1629 25.8223 45.0402 25.8104 43.5905 25.8158C42.6887 25.8192 41.955 25.8597 41.8466 25.9122ZM46.8308 25.9122C46.4175 26.1122 46.3943 26.7949 46.7934 27.0087C46.8872 27.0589 47.2009 27.1 47.4907 27.1C48.103 27.1 48.325 27.0049 48.444 26.6919C48.5559 26.3971 48.4097 26.0368 48.1253 25.9072C47.8619 25.787 47.0833 25.79 46.8308 25.9122ZM39.4156 28.1304C39.9847 29.2476 40.3551 29.6604 40.9474 29.838C41.4131 29.9777 48.584 29.9777 49.0497 29.838C49.6421 29.6604 50.0124 29.2476 50.5816 28.1304L51.1066 27.1H52.4287C53.7256 27.1 53.7557 27.1042 54.0151 27.3226L54.2795 27.5452V44.9874V62.4295L54.0151 62.6521L53.7508 62.8748H44.9986H36.2464L35.9821 62.6521L35.7176 62.4295V44.9874V27.5452L35.9821 27.3226C36.2414 27.1042 36.2716 27.1 37.5685 27.1H38.8906L39.4156 28.1304ZM25.212 28.9426C24.0961 29.3411 23.5442 30.6548 24.0365 31.7408C24.2582 32.2299 26.3142 34.3298 26.9093 34.6749C28.0216 35.3199 29.5343 34.7213 29.8757 33.5009C30.0136 33.008 29.9381 32.2546 29.7144 31.8927C29.62 31.7398 28.9501 31.0323 28.226 30.3202C27.1884 29.3 26.8344 29.0038 26.5556 28.9227C26.1006 28.7904 25.6181 28.7975 25.212 28.9426ZM63.3886 28.9253C62.9904 29.0554 60.449 31.5487 60.2091 32.0446C59.886 32.7126 60.0197 33.6414 60.5238 34.2308C60.9321 34.7082 61.4281 34.9259 62.1052 34.9249C62.8896 34.9237 63.285 34.6649 64.6849 33.2362C66.0177 31.8761 66.1849 31.5837 66.1225 30.7215C66.0468 29.6735 65.2769 28.9147 64.231 28.857C63.9332 28.8405 63.554 28.8713 63.3886 28.9253ZM27.4432 31.3386C28.5873 32.4835 28.671 32.5893 28.671 32.8905C28.671 33.3489 28.369 33.6357 27.8864 33.6357C27.5349 33.6357 27.4872 33.5991 26.3357 32.4468C25.2084 31.3187 25.1479 31.2407 25.1504 30.9204C25.1545 30.4167 25.4544 30.1177 25.9608 30.1124C26.1751 30.1103 26.4093 30.304 27.4432 31.3386ZM64.5851 30.3325C64.8009 30.5142 64.8495 30.6197 64.8495 30.9065C64.8495 31.2436 64.8006 31.3069 63.6614 32.4468C62.51 33.5991 62.4623 33.6357 62.1107 33.6357C61.6281 33.6357 61.3262 33.3489 61.3262 32.8905C61.3262 32.5893 61.4099 32.4835 62.554 31.3386C63.9234 29.9682 64.0676 29.8968 64.5851 30.3325ZM31.9382 33.1449C31.821 33.2039 31.6766 33.3482 31.6172 33.4655C31.5319 33.6341 31.5095 36.7928 31.5099 48.5562C31.5101 57.2557 31.5435 63.6632 31.5901 63.9863C31.7602 65.164 32.5084 66.1512 33.636 66.6857L34.2138 66.9596L41.1745 66.9843C45.0029 66.9979 48.2215 66.9877 48.327 66.9615C48.4324 66.9355 48.5805 66.7946 48.656 66.6486C48.7693 66.4294 48.7751 66.3392 48.6894 66.132C48.6322 65.994 48.5422 65.8528 48.4892 65.8184C48.4363 65.7839 45.2413 65.7363 41.3893 65.7127L34.3857 65.6697L33.9865 65.4349C33.5365 65.1701 33.2029 64.8077 32.986 64.3478C32.8491 64.0574 32.8373 62.9731 32.816 48.7188C32.7945 34.3097 32.7843 33.3942 32.6441 33.271C32.4154 33.0701 32.1728 33.0268 31.9382 33.1449ZM44.3976 40.0505C43.9318 40.2527 43.7848 40.4374 43.288 41.445L42.8255 42.3829L41.8446 42.5225C41.305 42.5994 40.727 42.727 40.5602 42.8062C39.9967 43.0738 39.6644 43.8237 39.7967 44.5293C39.8449 44.7867 40.0276 45.028 40.6687 45.681L41.4796 46.507L41.31 47.5477C41.1955 48.2504 41.1645 48.6726 41.2148 48.848C41.4089 49.5254 41.9038 49.9671 42.5503 50.04C42.8951 50.0789 43.0577 50.0267 43.9692 49.5838L44.9986 49.0837L46.0083 49.5732C46.6402 49.8796 47.1285 50.0625 47.3131 50.062C47.7389 50.0609 48.3143 49.7525 48.5238 49.4132C48.8524 48.8811 48.8717 48.6563 48.6836 47.5486L48.5085 46.5162L49.3239 45.6856C49.969 45.0286 50.1522 44.7869 50.2005 44.5293C50.3334 43.8205 50.0003 43.0738 49.4305 42.8032C49.2601 42.7223 48.6809 42.5921 48.1434 42.5139L47.1661 42.3718L46.7064 41.4394C46.2071 40.4267 46.063 40.2485 45.5802 40.0467C45.183 39.8805 44.7863 39.8819 44.3976 40.0505ZM45.6219 42.1749C46.1625 43.2916 46.4316 43.573 47.04 43.6579C48.5652 43.871 48.8117 43.9247 48.8985 44.0626C48.9747 44.1833 48.8431 44.3569 48.1114 45.101C47.2353 45.9919 47.2329 45.9956 47.2367 46.4153C47.2388 46.6469 47.3134 47.2233 47.4024 47.6963C47.5436 48.4465 47.5484 48.5725 47.4401 48.6836C47.3308 48.7957 47.1941 48.7468 46.2983 48.2751C45.6523 47.9348 45.1783 47.7393 44.9999 47.7393C44.821 47.7393 44.3494 47.9345 43.7019 48.2768C42.8006 48.7531 42.6706 48.7995 42.5589 48.6852C42.4481 48.5718 42.4524 48.4524 42.5947 47.6963C42.6838 47.2233 42.7583 46.6469 42.7605 46.4153C42.7643 45.9956 42.7619 45.9919 41.8858 45.101C40.7885 43.9851 40.7914 43.9716 42.1721 43.7684C42.7105 43.6891 43.1964 43.6214 43.2518 43.6179C43.5334 43.5999 43.9352 43.0839 44.3753 42.1749C44.7131 41.4773 44.8888 41.2035 44.9986 41.2035C45.1084 41.2035 45.2841 41.4773 45.6219 42.1749ZM24.3743 43.0329C23.9504 43.1708 23.2326 43.9162 23.1038 44.3524C22.8659 45.1582 23.0335 45.8007 23.6409 46.411C24.2538 47.027 24.4636 47.0698 26.7057 47.0361L28.5562 47.0083L28.9766 46.7481C29.2368 46.5869 29.496 46.3275 29.657 46.0668C29.8871 45.6942 29.9171 45.5702 29.9171 44.9874C29.9171 44.4046 29.8871 44.2806 29.657 43.9079C29.496 43.6473 29.2368 43.3878 28.9766 43.2267L28.5562 42.9664L26.6156 42.9508C25.3574 42.9406 24.5693 42.9695 24.3743 43.0329ZM61.3904 43.0462C60.8766 43.2296 60.4978 43.5737 60.2486 44.0835C59.7797 45.0427 60.1104 46.1845 61.0206 46.7481L61.441 47.0083L63.3197 47.0358C65.5805 47.069 65.8392 47.0131 66.4205 46.366C67.1927 45.5066 67.1932 44.4687 66.422 43.6104C65.8582 42.9829 65.5993 42.9227 63.4807 42.9272C62.2301 42.9299 61.6185 42.9647 61.3904 43.0462ZM28.4066 44.436C28.7809 44.7512 28.7809 45.2235 28.4066 45.5387L28.1422 45.7613H26.4664H24.7907L24.5395 45.51C24.2018 45.172 24.2018 44.8027 24.5395 44.4648L24.7907 44.2134H26.4664H28.1422L28.4066 44.436ZM65.4576 44.4648C65.6291 44.6363 65.7088 44.8023 65.7088 44.9874C65.7088 45.1724 65.6291 45.3384 65.4576 45.51L65.2064 45.7613H63.5307H61.8549L61.5906 45.5387C61.3802 45.3616 61.3262 45.2488 61.3262 44.9874C61.3262 44.7259 61.3802 44.6131 61.5906 44.436L61.8549 44.2134H63.5307H65.2064L65.4576 44.4648ZM26.9093 55.2989C26.673 55.4354 25.9544 56.0832 25.3122 56.7385C23.9795 58.0987 23.8123 58.3911 23.8746 59.2533C23.9689 60.5577 25.2155 61.4185 26.4992 61.0656C26.8537 60.968 27.0879 60.777 28.226 59.6563C28.9501 58.9433 29.62 58.2349 29.7144 58.082C29.9381 57.7201 30.0136 56.9668 29.8757 56.4738C29.5345 55.254 28.0231 54.6554 26.9093 55.2989ZM61.174 55.2309C60.699 55.4663 60.2575 55.9875 60.1214 56.4738C59.9835 56.9668 60.059 57.7201 60.2827 58.082C60.3772 58.2349 61.047 58.9433 61.7711 59.6563C62.9092 60.777 63.1434 60.968 63.498 61.0656C64.7817 61.4185 66.0282 60.5577 66.1225 59.2533C66.1849 58.3911 66.0177 58.0987 64.6849 56.7385C63.2821 55.3069 62.8903 55.0509 62.0996 55.0499C61.7029 55.0494 61.4347 55.1018 61.174 55.2309ZM28.46 56.5501C28.6091 56.6993 28.671 56.8558 28.671 57.0842C28.671 57.3854 28.5873 57.4912 27.4432 58.6361C26.0738 60.0065 25.9295 60.078 25.4121 59.6422C25.1962 59.4605 25.1477 59.355 25.1477 59.0682C25.1477 58.7312 25.1966 58.6678 26.3357 57.5279C27.4872 56.3756 27.5349 56.339 27.8864 56.339C28.1569 56.339 28.3028 56.3927 28.46 56.5501ZM63.6614 57.5279C64.8006 58.6678 64.8495 58.7312 64.8495 59.0682C64.8495 59.355 64.8009 59.4605 64.5851 59.6422C64.0676 60.078 63.9234 60.0065 62.554 58.6361C61.4099 57.4912 61.3262 57.3854 61.3262 57.0842C61.3262 56.6258 61.6281 56.339 62.1107 56.339C62.4623 56.339 62.51 56.3756 63.6614 57.5279Z" fill="black"/>
<path fill-rule="evenodd" clip-rule="evenodd" d="M34.2239 23.0669C32.8887 23.3839 31.7896 24.6086 31.5879 26.0042C31.4787 26.7596 31.4859 30.5399 31.5971 30.8591C31.6819 31.1028 31.9756 31.3138 32.2297 31.3138C32.292 31.3138 32.4418 31.236 32.5626 31.141L32.7823 30.968L32.8121 28.4535C32.8445 25.7293 32.8588 25.6394 33.3505 25.0558C33.4808 24.9012 33.767 24.669 33.9865 24.5398L34.3857 24.305H44.9986H55.6115L56.0107 24.5398C56.4606 24.8046 56.7942 25.167 57.0111 25.6269C57.1487 25.9186 57.1583 27.1817 57.1583 44.9874C57.1583 62.7931 57.1487 64.0561 57.0111 64.3478C56.7942 64.8077 56.4606 65.1701 56.0107 65.4349L55.6115 65.6697L53.2483 65.6963C50.98 65.722 50.8774 65.7304 50.6917 65.9049C50.4299 66.1511 50.4353 66.5694 50.7037 66.8217C50.9081 67.0138 50.9207 67.0146 53.3462 66.9872L55.7834 66.9596L56.3611 66.6857C57.4887 66.1512 58.237 65.164 58.407 63.9863C58.5136 63.2485 58.5136 26.7262 58.407 25.9884C58.237 24.8107 57.4887 23.8235 56.3611 23.289L55.7834 23.0151L45.1704 23.0014C38.9471 22.9933 34.4195 23.0205 34.2239 23.0669ZM35.8328 25.9334C35.3064 26.0982 34.9703 26.3727 34.6845 26.8712L34.4303 27.3149L34.4294 44.949L34.4286 62.583L34.6523 63.0323C34.9131 63.5559 35.2902 63.8725 35.8563 64.043C36.4475 64.2211 53.5379 64.2246 54.1282 64.0467C54.6819 63.8801 55.0953 63.5334 55.3495 63.0229L55.5685 62.583V44.9874V27.3917L55.3448 26.9424C55.084 26.4189 54.707 26.1022 54.1408 25.9318C53.6515 25.7844 51.0671 25.7617 50.6973 25.9015C50.2702 26.063 49.9774 26.4322 49.4599 27.4618C49.1816 28.0156 48.8786 28.5089 48.7865 28.5583C48.5566 28.6814 41.4405 28.6814 41.2107 28.5583C41.1185 28.5089 40.8155 28.0156 40.5373 27.4618C40.0198 26.4322 39.727 26.063 39.2998 25.9015C38.9502 25.7692 36.2785 25.7939 35.8328 25.9334ZM41.8466 25.9122C41.4333 26.1122 41.4101 26.7949 41.8092 27.0087C41.9122 27.0639 42.6275 27.1 43.618 27.1C45.1418 27.1 45.2684 27.0879 45.4283 26.928C45.6842 26.6719 45.6574 26.2116 45.3737 25.9883C45.1629 25.8223 45.0402 25.8104 43.5905 25.8158C42.6887 25.8192 41.955 25.8597 41.8466 25.9122ZM46.8308 25.9122C46.4175 26.1122 46.3943 26.7949 46.7934 27.0087C46.8872 27.0589 47.2009 27.1 47.4907 27.1C48.103 27.1 48.325 27.0049 48.444 26.6919C48.5559 26.3971 48.4097 26.0368 48.1253 25.9072C47.8619 25.787 47.0833 25.79 46.8308 25.9122ZM39.4156 28.1304C39.9847 29.2476 40.3551 29.6604 40.9474 29.838C41.4131 29.9777 48.584 29.9777 49.0497 29.838C49.6421 29.6604 50.0124 29.2476 50.5816 28.1304L51.1066 27.1H52.4287C53.7256 27.1 53.7557 27.1042 54.0151 27.3226L54.2795 27.5452V44.9874V62.4295L54.0151 62.6521L53.7508 62.8748H44.9986H36.2464L35.9821 62.6521L35.7176 62.4295V44.9874V27.5452L35.9821 27.3226C36.2414 27.1042 36.2716 27.1 37.5685 27.1H38.8906L39.4156 28.1304ZM25.212 28.9426C24.0961 29.3411 23.5442 30.6548 24.0365 31.7408C24.2582 32.2299 26.3142 34.3298 26.9093 34.6749C28.0216 35.3199 29.5343 34.7213 29.8757 33.5009C30.0136 33.008 29.9381 32.2546 29.7144 31.8927C29.62 31.7398 28.9501 31.0323 28.226 30.3202C27.1884 29.3 26.8344 29.0038 26.5556 28.9227C26.1006 28.7904 25.6181 28.7975 25.212 28.9426ZM63.3886 28.9253C62.9904 29.0554 60.449 31.5487 60.2091 32.0446C59.886 32.7126 60.0197 33.6414 60.5238 34.2308C60.9321 34.7082 61.4281 34.9259 62.1052 34.9249C62.8896 34.9237 63.285 34.6649 64.6849 33.2362C66.0177 31.8761 66.1849 31.5837 66.1225 30.7215C66.0468 29.6735 65.2769 28.9147 64.231 28.857C63.9332 28.8405 63.554 28.8713 63.3886 28.9253ZM27.4432 31.3386C28.5873 32.4835 28.671 32.5893 28.671 32.8905C28.671 33.3489 28.369 33.6357 27.8864 33.6357C27.5349 33.6357 27.4872 33.5991 26.3357 32.4468C25.2084 31.3187 25.1479 31.2407 25.1504 30.9204C25.1545 30.4167 25.4544 30.1177 25.9608 30.1124C26.1751 30.1103 26.4093 30.304 27.4432 31.3386ZM64.5851 30.3325C64.8009 30.5142 64.8495 30.6197 64.8495 30.9065C64.8495 31.2436 64.8006 31.3069 63.6614 32.4468C62.51 33.5991 62.4623 33.6357 62.1107 33.6357C61.6281 33.6357 61.3262 33.3489 61.3262 32.8905C61.3262 32.5893 61.4099 32.4835 62.554 31.3386C63.9234 29.9682 64.0676 29.8968 64.5851 30.3325ZM31.9382 33.1449C31.821 33.2039 31.6766 33.3482 31.6172 33.4655C31.5319 33.6341 31.5095 36.7928 31.5099 48.5562C31.5101 57.2557 31.5435 63.6632 31.5901 63.9863C31.7602 65.164 32.5084 66.1512 33.636 66.6857L34.2138 66.9596L41.1745 66.9843C45.0029 66.9979 48.2215 66.9877 48.327 66.9615C48.4324 66.9355 48.5805 66.7946 48.656 66.6486C48.7693 66.4294 48.7751 66.3392 48.6894 66.132C48.6322 65.994 48.5422 65.8528 48.4892 65.8184C48.4363 65.7839 45.2413 65.7363 41.3893 65.7127L34.3857 65.6697L33.9865 65.4349C33.5365 65.1701 33.2029 64.8077 32.986 64.3478C32.8491 64.0574 32.8373 62.9731 32.816 48.7188C32.7945 34.3097 32.7843 33.3942 32.6441 33.271C32.4154 33.0701 32.1728 33.0268 31.9382 33.1449ZM44.3976 40.0505C43.9318 40.2527 43.7848 40.4374 43.288 41.445L42.8255 42.3829L41.8446 42.5225C41.305 42.5994 40.727 42.727 40.5602 42.8062C39.9967 43.0738 39.6644 43.8237 39.7967 44.5293C39.8449 44.7867 40.0276 45.028 40.6687 45.681L41.4796 46.507L41.31 47.5477C41.1955 48.2504 41.1645 48.6726 41.2148 48.848C41.4089 49.5254 41.9038 49.9671 42.5503 50.04C42.8951 50.0789 43.0577 50.0267 43.9692 49.5838L44.9986 49.0837L46.0083 49.5732C46.6402 49.8796 47.1285 50.0625 47.3131 50.062C47.7389 50.0609 48.3143 49.7525 48.5238 49.4132C48.8524 48.8811 48.8717 48.6563 48.6836 47.5486L48.5085 46.5162L49.3239 45.6856C49.969 45.0286 50.1522 44.7869 50.2005 44.5293C50.3334 43.8205 50.0003 43.0738 49.4305 42.8032C49.2601 42.7223 48.6809 42.5921 48.1434 42.5139L47.1661 42.3718L46.7064 41.4394C46.2071 40.4267 46.063 40.2485 45.5802 40.0467C45.183 39.8805 44.7863 39.8819 44.3976 40.0505ZM45.6219 42.1749C46.1625 43.2916 46.4316 43.573 47.04 43.6579C48.5652 43.871 48.8117 43.9247 48.8985 44.0626C48.9747 44.1833 48.8431 44.3569 48.1114 45.101C47.2353 45.9919 47.2329 45.9956 47.2367 46.4153C47.2388 46.6469 47.3134 47.2233 47.4024 47.6963C47.5436 48.4465 47.5484 48.5725 47.4401 48.6836C47.3308 48.7957 47.1941 48.7468 46.2983 48.2751C45.6523 47.9348 45.1783 47.7393 44.9999 47.7393C44.821 47.7393 44.3494 47.9345 43.7019 48.2768C42.8006 48.7531 42.6706 48.7995 42.5589 48.6852C42.4481 48.5718 42.4524 48.4524 42.5947 47.6963C42.6838 47.2233 42.7583 46.6469 42.7605 46.4153C42.7643 45.9956 42.7619 45.9919 41.8858 45.101C40.7885 43.9851 40.7914 43.9716 42.1721 43.7684C42.7105 43.6891 43.1964 43.6214 43.2518 43.6179C43.5334 43.5999 43.9352 43.0839 44.3753 42.1749C44.7131 41.4773 44.8888 41.2035 44.9986 41.2035C45.1084 41.2035 45.2841 41.4773 45.6219 42.1749ZM24.3743 43.0329C23.9504 43.1708 23.2326 43.9162 23.1038 44.3524C22.8659 45.1582 23.0335 45.8007 23.6409 46.411C24.2538 47.027 24.4636 47.0698 26.7057 47.0361L28.5562 47.0083L28.9766 46.7481C29.2368 46.5869 29.496 46.3275 29.657 46.0668C29.8871 45.6942 29.9171 45.5702 29.9171 44.9874C29.9171 44.4046 29.8871 44.2806 29.657 43.9079C29.496 43.6473 29.2368 43.3878 28.9766 43.2267L28.5562 42.9664L26.6156 42.9508C25.3574 42.9406 24.5693 42.9695 24.3743 43.0329ZM61.3904 43.0462C60.8766 43.2296 60.4978 43.5737 60.2486 44.0835C59.7797 45.0427 60.1104 46.1845 61.0206 46.7481L61.441 47.0083L63.3197 47.0358C65.5805 47.069 65.8392 47.0131 66.4205 46.366C67.1927 45.5066 67.1932 44.4687 66.422 43.6104C65.8582 42.9829 65.5993 42.9227 63.4807 42.9272C62.2301 42.9299 61.6185 42.9647 61.3904 43.0462ZM28.4066 44.436C28.7809 44.7512 28.7809 45.2235 28.4066 45.5387L28.1422 45.7613H26.4664H24.7907L24.5395 45.51C24.2018 45.172 24.2018 44.8027 24.5395 44.4648L24.7907 44.2134H26.4664H28.1422L28.4066 44.436ZM65.4576 44.4648C65.6291 44.6363 65.7088 44.8023 65.7088 44.9874C65.7088 45.1724 65.6291 45.3384 65.4576 45.51L65.2064 45.7613H63.5307H61.8549L61.5906 45.5387C61.3802 45.3616 61.3262 45.2488 61.3262 44.9874C61.3262 44.7259 61.3802 44.6131 61.5906 44.436L61.8549 44.2134H63.5307H65.2064L65.4576 44.4648ZM26.9093 55.2989C26.673 55.4354 25.9544 56.0832 25.3122 56.7385C23.9795 58.0987 23.8123 58.3911 23.8746 59.2533C23.9689 60.5577 25.2155 61.4185 26.4992 61.0656C26.8537 60.968 27.0879 60.777 28.226 59.6563C28.9501 58.9433 29.62 58.2349 29.7144 58.082C29.9381 57.7201 30.0136 56.9668 29.8757 56.4738C29.5345 55.254 28.0231 54.6554 26.9093 55.2989ZM61.174 55.2309C60.699 55.4663 60.2575 55.9875 60.1214 56.4738C59.9835 56.9668 60.059 57.7201 60.2827 58.082C60.3772 58.2349 61.047 58.9433 61.7711 59.6563C62.9092 60.777 63.1434 60.968 63.498 61.0656C64.7817 61.4185 66.0282 60.5577 66.1225 59.2533C66.1849 58.3911 66.0177 58.0987 64.6849 56.7385C63.2821 55.3069 62.8903 55.0509 62.0996 55.0499C61.7029 55.0494 61.4347 55.1018 61.174 55.2309ZM28.46 56.5501C28.6091 56.6993 28.671 56.8558 28.671 57.0842C28.671 57.3854 28.5873 57.4912 27.4432 58.6361C26.0738 60.0065 25.9295 60.078 25.4121 59.6422C25.1962 59.4605 25.1477 59.355 25.1477 59.0682C25.1477 58.7312 25.1966 58.6678 26.3357 57.5279C27.4872 56.3756 27.5349 56.339 27.8864 56.339C28.1569 56.339 28.3028 56.3927 28.46 56.5501ZM63.6614 57.5279C64.8006 58.6678 64.8495 58.7312 64.8495 59.0682C64.8495 59.355 64.8009 59.4605 64.5851 59.6422C64.0676 60.078 63.9234 60.0065 62.554 58.6361C61.4099 57.4912 61.3262 57.3854 61.3262 57.0842C61.3262 56.6258 61.6281 56.339 62.1107 56.339C62.4623 56.339 62.51 56.3756 63.6614 57.5279Z" fill="url(#paint0_linear_416_1206)"/>
<defs>
<linearGradient id="paint0_linear_416_1206" x1="31.8587" y1="31.6026" x2="65.6704" y2="32.9611" gradientUnits="userSpaceOnUse">
<stop stop-color="#006FFB"/>
<stop offset="1" stop-color="#64E8A4"/>
</linearGradient>
</defs>
</svg>
