<svg width="90" height="90" viewBox="0 0 90 90" fill="none" xmlns="http://www.w3.org/2000/svg">
<path fill-rule="evenodd" clip-rule="evenodd" d="M0 20C0 8.9543 8.9543 0 20 0H70C81.0457 0 90 8.9543 90 20V70C90 81.0457 81.0457 90 70 90H20C8.9543 90 0 81.0457 0 70V20Z" fill="white"/>
<path fill-rule="evenodd" clip-rule="evenodd" d="M43.4537 18.1603C43.0425 18.2471 42.2977 18.5126 41.7984 18.7502C40.9812 19.1392 40.7565 19.3195 39.5456 20.558C37.719 22.4261 37.7559 22.4108 35.0704 22.4142C33.0715 22.4167 32.9559 22.4286 32.1883 22.7087C30.9167 23.1727 30.5009 23.6213 30.7783 24.2302C31.0086 24.7355 31.3783 24.7691 32.3434 24.3719L33.2016 24.0187L35.284 24.0136C37.1906 24.0089 37.4182 23.9881 37.9791 23.7663C38.8035 23.4401 39.785 22.7707 40.1544 22.2826C41.084 21.0546 41.9478 20.3646 43.1333 19.9033C43.6721 19.6937 43.9696 19.6541 45.0022 19.6541C46.0348 19.6541 46.3323 19.6937 46.8711 19.9033C47.8462 20.2827 48.5327 20.7685 49.229 21.5719C50.2026 22.6952 50.6621 23.1048 51.329 23.443C52.4145 23.9936 52.985 24.0887 54.7254 24.0088C56.0264 23.9491 56.3822 23.9674 56.9147 24.1211C59.75 24.9397 61.3993 27.4632 61.0178 30.3991C60.7862 32.1803 61.3214 33.8101 62.4947 34.8968C63.995 36.2865 64.5194 36.8643 64.7982 37.4353C65.9116 39.7148 65.4758 42.3591 63.7181 43.989C61.6901 45.8698 61.3703 46.3302 61.0594 47.8157C60.9277 48.445 60.9204 48.7637 61.018 49.6078C61.1682 50.9061 61.0359 51.8314 60.5542 52.8529C59.9332 54.1695 58.7777 55.2272 57.3368 55.7981C56.7395 56.0347 56.5729 56.0503 54.8806 56.0273C52.9194 56.0007 52.3179 56.0862 51.4632 56.5125C50.6914 56.8974 50.2299 57.292 49.4526 58.2314C48.218 59.7238 46.8145 60.4112 45.0022 60.4112C43.1899 60.4112 41.7864 59.7238 40.5518 58.2314C39.7745 57.292 39.313 56.8974 38.5412 56.5125C37.6399 56.0629 37.011 55.968 35.4581 56.0477C33.7528 56.1352 33.1636 56.0366 32.0139 55.4717C30.44 54.6983 29.2516 53.0901 28.9827 51.3698C28.8997 50.8394 28.9008 50.3482 28.9864 49.6078C29.084 48.7637 29.0767 48.445 28.945 47.8157C28.6349 46.3337 28.2724 45.811 26.291 43.989C25.1876 42.9744 24.6036 41.6077 24.606 40.045C24.6083 38.4653 25.1128 37.2125 26.1574 36.1931C26.5185 35.8407 27.1027 35.2838 27.4556 34.9554C28.6839 33.8123 29.2221 32.2108 28.9866 30.3991C28.8422 29.2875 28.958 28.344 29.361 27.3525C29.5057 26.9964 29.624 26.5933 29.624 26.4566C29.624 25.811 28.661 25.5312 28.2477 26.0567C27.9284 26.4627 27.5936 27.4214 27.4144 28.4433C27.2856 29.1777 27.2786 29.5338 27.3765 30.3757C27.5016 31.452 27.4401 32.0127 27.1102 32.8023C27.0179 33.0229 26.3753 33.7489 25.5825 34.5279C24.4828 35.6087 24.1363 36.0238 23.8189 36.6417C22.7234 38.7742 22.7273 41.3601 23.829 43.4325C24.235 44.1965 25.2386 45.3129 26.2264 46.0994C26.5715 46.3742 26.8358 46.7194 27.0786 47.2124C27.4158 47.8976 27.4286 47.9692 27.389 48.9483C27.2865 51.4759 27.3986 52.2942 28.0288 53.6144C28.9318 55.5064 30.9457 57.1154 32.9079 57.5128L33.5753 57.6479V58.7925C33.5753 59.422 33.6052 60.015 33.6417 60.11C33.7404 60.3674 34.2806 60.6101 34.5845 60.5338C35.0449 60.4182 35.1207 60.2089 35.1772 58.8976L35.2306 57.6586L36.0967 57.6278C37.3003 57.585 37.9942 57.8513 38.737 58.641C39.0405 58.9637 39.5892 59.5434 39.9562 59.9293L40.6237 60.6309V64.4588V68.2867L38.5354 69.674C36.2171 71.214 36.0229 71.2825 35.4894 70.749L35.1772 70.4368V66.8162V63.1957L34.9301 62.9634C34.5775 62.6323 34.0766 62.6567 33.7917 63.0189C33.5694 63.3015 33.5659 63.374 33.597 67.0504C33.6276 70.6509 33.6376 70.8105 33.8592 71.2213C34.4692 72.3518 35.7816 72.9139 36.9118 72.5288C37.1726 72.4399 38.7719 71.4423 40.4661 70.3119C42.1601 69.1814 43.7417 68.1678 43.9805 68.0593C44.545 67.8029 45.4594 67.8029 46.0239 68.0593C46.2627 68.1678 47.842 69.18 49.5334 70.3085C51.2249 71.4372 52.8016 72.4287 53.0372 72.5118C54.212 72.9264 55.5177 72.3842 56.1452 71.2213C56.3732 70.7987 56.376 70.7236 56.4055 64.2204L56.4353 57.6466L57.0996 57.5122C59.0587 57.1155 61.0733 55.5051 61.9756 53.6144C62.6062 52.2933 62.7225 51.4439 62.614 48.953C62.5714 47.9756 62.5833 47.9089 62.9237 47.2172C63.1687 46.7193 63.4318 46.375 63.778 46.0994C66.0027 44.328 66.996 42.4561 67 40.0281C67.0019 38.8332 66.7286 37.6983 66.1844 36.6417C65.8667 36.0247 65.5107 35.5984 64.3829 34.4845C62.5253 32.6494 62.5375 32.6831 62.632 29.6788C62.6769 28.2545 62.5512 27.6686 61.9158 26.3405C61.1208 24.6791 59.6491 23.3785 57.7998 22.7029C57.0516 22.4296 56.9229 22.4167 54.934 22.4142C52.2485 22.4108 52.2854 22.4261 50.4588 20.558C49.247 19.3187 49.0238 19.1396 48.206 18.7508C46.6712 18.0213 45.0594 17.8211 43.4537 18.1603ZM44.3608 21.6026C43.233 21.9719 42.4392 22.9763 42.4392 24.0341C42.4392 24.6959 43.0275 25.0696 43.6018 24.7725C43.9318 24.6019 44.0411 24.4136 44.0411 24.016C44.0411 23.8772 44.1561 23.6299 44.2967 23.4664C44.6611 23.0429 45.3433 23.0429 45.7077 23.4664C45.8483 23.6299 45.9633 23.8772 45.9633 24.016C45.9633 24.1547 45.9932 24.346 46.0297 24.4411C46.1297 24.7019 46.6684 24.9412 46.9795 24.8631C48.0788 24.5872 47.515 22.5121 46.1518 21.8167C45.6772 21.5746 44.7756 21.4668 44.3608 21.6026ZM32.6632 26.4608C31.7122 26.9036 31.2259 27.6854 31.2259 28.7711C31.2259 29.4957 31.5737 30.3373 31.9952 30.6324C32.791 31.1899 33.6491 30.1887 33.0414 29.4118C32.7386 29.0248 32.7613 28.4007 33.09 28.0721C33.4136 27.7483 33.971 27.7237 34.3436 28.0168C34.8261 28.3964 35.1343 28.4032 35.4949 28.0426C35.9254 27.6121 35.9049 27.3256 35.4101 26.8549C34.6958 26.1754 33.6106 26.0196 32.6632 26.4608ZM55.4145 26.3369C54.9672 26.4932 54.407 26.9301 54.271 27.2287C54.0295 27.7586 54.6339 28.452 55.1865 28.279C55.3119 28.2398 55.5291 28.1182 55.6692 28.0087C56.035 27.7231 56.594 27.7515 56.9144 28.0721C57.2432 28.4007 57.2658 29.0248 56.963 29.4118C56.3539 30.1905 57.2115 31.1912 58.0092 30.6324C58.1408 30.5403 58.3678 30.2295 58.5135 29.9419C58.8185 29.34 58.8738 28.3508 58.6346 27.7798C58.1324 26.5815 56.6346 25.9104 55.4145 26.3369ZM42.8636 27.0062C37.7449 27.8689 33.5878 31.6807 32.2259 36.7601C31.8499 38.1626 31.7511 40.8311 32.0215 42.2804C32.7955 46.4285 35.3861 49.9131 39.0752 51.7682C41.0952 52.784 42.6736 53.1526 45.0022 53.1526C46.7804 53.1526 47.6459 53.0191 49.2158 52.5023C53.7992 50.9937 57.3283 46.7566 58.0366 41.9118C58.2408 40.5153 58.1167 38.0317 57.7796 36.7691C56.1977 30.8444 50.9496 26.8083 44.8954 26.8602C44.2199 26.8659 43.3056 26.9316 42.8636 27.0062ZM47.7788 28.7747C52.2151 29.9313 55.5475 33.474 56.3828 37.9219C56.6246 39.2089 56.5446 41.7146 56.2243 42.888C55.1276 46.9063 52.0697 50.0351 48.1526 51.1471C41.992 52.8958 35.5665 49.2674 33.83 43.0593C33.4556 41.7205 33.3583 39.3234 33.6216 37.9219C34.1652 35.0274 35.7769 32.4756 38.2208 30.6397C39.4377 29.7255 41.3234 28.9227 43.0058 28.6024C44.1568 28.3833 46.6182 28.4721 47.7788 28.7747ZM44.1403 33.9772C43.586 34.2579 43.5336 34.3227 42.9494 35.4456C42.6132 36.0917 42.3249 36.6547 42.3087 36.6967C42.2923 36.7386 41.7744 36.8479 41.1576 36.9393C39.7176 37.1529 39.4518 37.2442 39.0473 37.6636C38.4758 38.2561 38.3355 38.9859 38.649 39.7361C38.739 39.9515 39.2165 40.5059 39.7306 40.9919L40.651 41.862L40.4304 43.1454C40.28 44.0199 40.2375 44.5516 40.2969 44.8148C40.4915 45.6778 41.2635 46.2851 42.166 46.2851C42.5436 46.2851 42.9062 46.1527 43.83 45.6773L45.0113 45.0697L46.1837 45.6773C47.1029 46.1539 47.4603 46.2851 47.8387 46.2851C48.7409 46.2851 49.5129 45.6777 49.7075 44.8148C49.7669 44.5517 49.7244 44.0201 49.5741 43.1462L49.3537 41.8638L50.2706 41.0009C50.7965 40.5059 51.2577 39.97 51.352 39.7442C51.6711 38.9804 51.5041 38.1651 50.9157 37.615C50.507 37.2328 50.2759 37.156 48.8939 36.9433L47.719 36.7622L47.1125 35.5666C46.4924 34.3439 46.2237 34.0421 45.547 33.8087C45.0122 33.6243 44.7827 33.6518 44.1403 33.9772ZM45.8153 36.6157C46.1744 37.3129 46.5897 37.9718 46.7382 38.08C46.9124 38.2068 47.4857 38.3499 48.3544 38.4833C49.0949 38.597 49.7488 38.7197 49.8077 38.7561C50.0295 38.8931 49.8894 39.1064 48.9993 39.9867C47.6483 41.3227 47.6398 41.3504 47.9737 43.3006C48.1771 44.4882 48.1717 44.6832 47.9359 44.6832C47.8559 44.6832 47.2046 44.3949 46.4885 44.0424C45.7725 43.69 45.1007 43.4017 44.9956 43.4017C44.8905 43.4017 44.2285 43.69 43.5244 44.0424C42.2144 44.6982 41.955 44.7791 41.8804 44.5554C41.8569 44.485 41.9246 43.9204 42.0307 43.3006C42.3646 41.3504 42.3561 41.3227 41.0051 39.9867C40.115 39.1064 39.9749 38.8931 40.1967 38.7561C40.2556 38.7197 40.9044 38.5977 41.6388 38.485C42.3878 38.37 43.0943 38.2011 43.2483 38.1003C43.4149 37.991 43.7553 37.4551 44.1143 36.7364C44.7722 35.4199 44.8749 35.2627 45.0449 35.3132C45.1095 35.3324 45.4562 35.9185 45.8153 36.6157ZM28.5027 37.5211C27.329 37.8069 26.5231 38.8615 26.5293 40.1035C26.5319 40.6211 26.8405 41.3946 27.2011 41.7872C27.5435 42.1601 28.4339 42.5451 28.9565 42.5463C29.5242 42.5476 29.8376 42.269 29.8376 41.7629C29.8376 41.3183 29.6034 41.0967 28.9871 40.9582C28.4363 40.8345 28.1347 40.5057 28.1312 40.0254C28.1278 39.5379 28.4856 39.1437 29.0073 39.0603C29.5645 38.9713 29.8376 38.6982 29.8376 38.23C29.8376 37.9617 29.7624 37.8048 29.5562 37.6427C29.2646 37.4133 29.0483 37.3883 28.5027 37.5211ZM60.4589 37.6342C60.2421 37.8047 60.1668 37.9583 60.1668 38.23C60.1668 38.6982 60.4399 38.9713 60.9971 39.0603C61.5188 39.1437 61.8766 39.5379 61.8732 40.0254C61.8698 40.5057 61.5681 40.8345 61.0173 40.9582C60.401 41.0967 60.1668 41.3183 60.1668 41.7629C60.1668 42.5473 60.997 42.7803 62.0482 42.2908C63.5375 41.5973 63.9438 39.6425 62.8614 38.3779C62.4275 37.871 61.8938 37.5759 61.2306 37.4765C60.8329 37.4168 60.7009 37.4438 60.4589 37.6342ZM31.8389 49.569C31.4242 50.0019 31.2258 50.5722 31.2268 51.3277C31.2294 53.0061 32.8204 54.1983 34.4297 53.7274C34.7527 53.6328 35.1829 53.4166 35.3855 53.2471C35.6862 52.9953 35.7539 52.8644 35.7539 52.535C35.7539 52.2419 35.6862 52.0764 35.5071 51.9314C35.1795 51.6661 34.8917 51.6839 34.3763 52.0013C33.8325 52.3362 33.5658 52.3335 33.1564 51.989C32.7588 51.6544 32.713 51.1061 33.0414 50.6102C33.1581 50.434 33.2539 50.1576 33.2542 49.9962C33.2559 49.2945 32.3606 49.0243 31.8389 49.569ZM56.963 49.4889C56.6915 49.7605 56.6915 50.2002 56.963 50.6102C57.2914 51.1061 57.2456 51.6544 56.848 51.989C56.4341 52.3374 56.2124 52.3361 55.5827 51.9822C54.9975 51.6533 54.6084 51.691 54.3385 52.1027C54.0778 52.5006 54.2285 52.9648 54.7382 53.3341C56.4269 54.5574 58.7745 53.3913 58.7776 51.3277C58.7786 50.5722 58.5802 50.0019 58.1655 49.569C57.8201 49.2083 57.2796 49.1724 56.963 49.4889ZM42.6884 55.4239C42.4486 55.6638 42.4199 55.7658 42.464 56.2242C42.5286 56.8959 42.9933 57.6568 43.5989 58.0824C44.0274 58.3836 44.1251 58.4061 45.0022 58.4061C45.8793 58.4061 45.977 58.3836 46.4055 58.0824C47.0111 57.6568 47.4759 56.8959 47.5404 56.2242C47.5845 55.7658 47.5558 55.6638 47.316 55.4239C47.162 55.2699 46.9191 55.1489 46.7643 55.1489C46.4314 55.1489 45.9633 55.586 45.9633 55.8969C45.9633 56.2035 45.6881 56.7107 45.478 56.7913C45.2557 56.8765 44.7487 56.8765 44.5264 56.7913C44.3163 56.7107 44.0411 56.2035 44.0411 55.8969C44.0411 55.586 43.573 55.1489 43.2401 55.1489C43.0853 55.1489 42.8424 55.2699 42.6884 55.4239ZM54.8013 64.0468L54.8289 70.4351L54.5159 70.7481C53.9814 71.2826 53.7881 71.2145 51.469 69.674L49.3807 68.2867V64.4582V60.6296L49.9948 59.9858C50.3326 59.6317 50.8789 59.0531 51.209 58.6998C52.0079 57.845 52.611 57.6035 53.866 57.6354L54.7738 57.6586L54.8013 64.0468ZM43.3469 61.8436C43.7291 61.9476 44.397 62.0179 45.0022 62.0179C45.9057 62.0179 46.3209 61.9495 47.5385 61.6005L47.7788 61.5316V64.3296C47.7788 65.8685 47.7428 67.1116 47.6987 67.0919C47.6546 67.0724 47.2832 66.8882 46.8733 66.6826C46.1626 66.3262 46.0757 66.3088 45.0022 66.3088C43.9287 66.3088 43.8418 66.3262 43.1311 66.6826C42.7212 66.8882 42.3497 67.0724 42.3057 67.0919C42.2617 67.1116 42.2256 65.8685 42.2256 64.3296V61.5316L42.4659 61.6005C42.5981 61.6383 42.9945 61.7478 43.3469 61.8436Z" fill="black"/>
<path fill-rule="evenodd" clip-rule="evenodd" d="M43.4537 18.1603C43.0425 18.2471 42.2977 18.5126 41.7984 18.7502C40.9812 19.1392 40.7565 19.3195 39.5456 20.558C37.719 22.4261 37.7559 22.4108 35.0704 22.4142C33.0715 22.4167 32.9559 22.4286 32.1883 22.7087C30.9167 23.1727 30.5009 23.6213 30.7783 24.2302C31.0086 24.7355 31.3783 24.7691 32.3434 24.3719L33.2016 24.0187L35.284 24.0136C37.1906 24.0089 37.4182 23.9881 37.9791 23.7663C38.8035 23.4401 39.785 22.7707 40.1544 22.2826C41.084 21.0546 41.9478 20.3646 43.1333 19.9033C43.6721 19.6937 43.9696 19.6541 45.0022 19.6541C46.0348 19.6541 46.3323 19.6937 46.8711 19.9033C47.8462 20.2827 48.5327 20.7685 49.229 21.5719C50.2026 22.6952 50.6621 23.1048 51.329 23.443C52.4145 23.9936 52.985 24.0887 54.7254 24.0088C56.0264 23.9491 56.3822 23.9674 56.9147 24.1211C59.75 24.9397 61.3993 27.4632 61.0178 30.3991C60.7862 32.1803 61.3214 33.8101 62.4947 34.8968C63.995 36.2865 64.5194 36.8643 64.7982 37.4353C65.9116 39.7148 65.4758 42.3591 63.7181 43.989C61.6901 45.8698 61.3703 46.3302 61.0594 47.8157C60.9277 48.445 60.9204 48.7637 61.018 49.6078C61.1682 50.9061 61.0359 51.8314 60.5542 52.8529C59.9332 54.1695 58.7777 55.2272 57.3368 55.7981C56.7395 56.0347 56.5729 56.0503 54.8806 56.0273C52.9194 56.0007 52.3179 56.0862 51.4632 56.5125C50.6914 56.8974 50.2299 57.292 49.4526 58.2314C48.218 59.7238 46.8145 60.4112 45.0022 60.4112C43.1899 60.4112 41.7864 59.7238 40.5518 58.2314C39.7745 57.292 39.313 56.8974 38.5412 56.5125C37.6399 56.0629 37.011 55.968 35.4581 56.0477C33.7528 56.1352 33.1636 56.0366 32.0139 55.4717C30.44 54.6983 29.2516 53.0901 28.9827 51.3698C28.8997 50.8394 28.9008 50.3482 28.9864 49.6078C29.084 48.7637 29.0767 48.445 28.945 47.8157C28.6349 46.3337 28.2724 45.811 26.291 43.989C25.1876 42.9744 24.6036 41.6077 24.606 40.045C24.6083 38.4653 25.1128 37.2125 26.1574 36.1931C26.5185 35.8407 27.1027 35.2838 27.4556 34.9554C28.6839 33.8123 29.2221 32.2108 28.9866 30.3991C28.8422 29.2875 28.958 28.344 29.361 27.3525C29.5057 26.9964 29.624 26.5933 29.624 26.4566C29.624 25.811 28.661 25.5312 28.2477 26.0567C27.9284 26.4627 27.5936 27.4214 27.4144 28.4433C27.2856 29.1777 27.2786 29.5338 27.3765 30.3757C27.5016 31.452 27.4401 32.0127 27.1102 32.8023C27.0179 33.0229 26.3753 33.7489 25.5825 34.5279C24.4828 35.6087 24.1363 36.0238 23.8189 36.6417C22.7234 38.7742 22.7273 41.3601 23.829 43.4325C24.235 44.1965 25.2386 45.3129 26.2264 46.0994C26.5715 46.3742 26.8358 46.7194 27.0786 47.2124C27.4158 47.8976 27.4286 47.9692 27.389 48.9483C27.2865 51.4759 27.3986 52.2942 28.0288 53.6144C28.9318 55.5064 30.9457 57.1154 32.9079 57.5128L33.5753 57.6479V58.7925C33.5753 59.422 33.6052 60.015 33.6417 60.11C33.7404 60.3674 34.2806 60.6101 34.5845 60.5338C35.0449 60.4182 35.1207 60.2089 35.1772 58.8976L35.2306 57.6586L36.0967 57.6278C37.3003 57.585 37.9942 57.8513 38.737 58.641C39.0405 58.9637 39.5892 59.5434 39.9562 59.9293L40.6237 60.6309V64.4588V68.2867L38.5354 69.674C36.2171 71.214 36.0229 71.2825 35.4894 70.749L35.1772 70.4368V66.8162V63.1957L34.9301 62.9634C34.5775 62.6323 34.0766 62.6567 33.7917 63.0189C33.5694 63.3015 33.5659 63.374 33.597 67.0504C33.6276 70.6509 33.6376 70.8105 33.8592 71.2213C34.4692 72.3518 35.7816 72.9139 36.9118 72.5288C37.1726 72.4399 38.7719 71.4423 40.4661 70.3119C42.1601 69.1814 43.7417 68.1678 43.9805 68.0593C44.545 67.8029 45.4594 67.8029 46.0239 68.0593C46.2627 68.1678 47.842 69.18 49.5334 70.3085C51.2249 71.4372 52.8016 72.4287 53.0372 72.5118C54.212 72.9264 55.5177 72.3842 56.1452 71.2213C56.3732 70.7987 56.376 70.7236 56.4055 64.2204L56.4353 57.6466L57.0996 57.5122C59.0587 57.1155 61.0733 55.5051 61.9756 53.6144C62.6062 52.2933 62.7225 51.4439 62.614 48.953C62.5714 47.9756 62.5833 47.9089 62.9237 47.2172C63.1687 46.7193 63.4318 46.375 63.778 46.0994C66.0027 44.328 66.996 42.4561 67 40.0281C67.0019 38.8332 66.7286 37.6983 66.1844 36.6417C65.8667 36.0247 65.5107 35.5984 64.3829 34.4845C62.5253 32.6494 62.5375 32.6831 62.632 29.6788C62.6769 28.2545 62.5512 27.6686 61.9158 26.3405C61.1208 24.6791 59.6491 23.3785 57.7998 22.7029C57.0516 22.4296 56.9229 22.4167 54.934 22.4142C52.2485 22.4108 52.2854 22.4261 50.4588 20.558C49.247 19.3187 49.0238 19.1396 48.206 18.7508C46.6712 18.0213 45.0594 17.8211 43.4537 18.1603ZM44.3608 21.6026C43.233 21.9719 42.4392 22.9763 42.4392 24.0341C42.4392 24.6959 43.0275 25.0696 43.6018 24.7725C43.9318 24.6019 44.0411 24.4136 44.0411 24.016C44.0411 23.8772 44.1561 23.6299 44.2967 23.4664C44.6611 23.0429 45.3433 23.0429 45.7077 23.4664C45.8483 23.6299 45.9633 23.8772 45.9633 24.016C45.9633 24.1547 45.9932 24.346 46.0297 24.4411C46.1297 24.7019 46.6684 24.9412 46.9795 24.8631C48.0788 24.5872 47.515 22.5121 46.1518 21.8167C45.6772 21.5746 44.7756 21.4668 44.3608 21.6026ZM32.6632 26.4608C31.7122 26.9036 31.2259 27.6854 31.2259 28.7711C31.2259 29.4957 31.5737 30.3373 31.9952 30.6324C32.791 31.1899 33.6491 30.1887 33.0414 29.4118C32.7386 29.0248 32.7613 28.4007 33.09 28.0721C33.4136 27.7483 33.971 27.7237 34.3436 28.0168C34.8261 28.3964 35.1343 28.4032 35.4949 28.0426C35.9254 27.6121 35.9049 27.3256 35.4101 26.8549C34.6958 26.1754 33.6106 26.0196 32.6632 26.4608ZM55.4145 26.3369C54.9672 26.4932 54.407 26.9301 54.271 27.2287C54.0295 27.7586 54.6339 28.452 55.1865 28.279C55.3119 28.2398 55.5291 28.1182 55.6692 28.0087C56.035 27.7231 56.594 27.7515 56.9144 28.0721C57.2432 28.4007 57.2658 29.0248 56.963 29.4118C56.3539 30.1905 57.2115 31.1912 58.0092 30.6324C58.1408 30.5403 58.3678 30.2295 58.5135 29.9419C58.8185 29.34 58.8738 28.3508 58.6346 27.7798C58.1324 26.5815 56.6346 25.9104 55.4145 26.3369ZM42.8636 27.0062C37.7449 27.8689 33.5878 31.6807 32.2259 36.7601C31.8499 38.1626 31.7511 40.8311 32.0215 42.2804C32.7955 46.4285 35.3861 49.9131 39.0752 51.7682C41.0952 52.784 42.6736 53.1526 45.0022 53.1526C46.7804 53.1526 47.6459 53.0191 49.2158 52.5023C53.7992 50.9937 57.3283 46.7566 58.0366 41.9118C58.2408 40.5153 58.1167 38.0317 57.7796 36.7691C56.1977 30.8444 50.9496 26.8083 44.8954 26.8602C44.2199 26.8659 43.3056 26.9316 42.8636 27.0062ZM47.7788 28.7747C52.2151 29.9313 55.5475 33.474 56.3828 37.9219C56.6246 39.2089 56.5446 41.7146 56.2243 42.888C55.1276 46.9063 52.0697 50.0351 48.1526 51.1471C41.992 52.8958 35.5665 49.2674 33.83 43.0593C33.4556 41.7205 33.3583 39.3234 33.6216 37.9219C34.1652 35.0274 35.7769 32.4756 38.2208 30.6397C39.4377 29.7255 41.3234 28.9227 43.0058 28.6024C44.1568 28.3833 46.6182 28.4721 47.7788 28.7747ZM44.1403 33.9772C43.586 34.2579 43.5336 34.3227 42.9494 35.4456C42.6132 36.0917 42.3249 36.6547 42.3087 36.6967C42.2923 36.7386 41.7744 36.8479 41.1576 36.9393C39.7176 37.1529 39.4518 37.2442 39.0473 37.6636C38.4758 38.2561 38.3355 38.9859 38.649 39.7361C38.739 39.9515 39.2165 40.5059 39.7306 40.9919L40.651 41.862L40.4304 43.1454C40.28 44.0199 40.2375 44.5516 40.2969 44.8148C40.4915 45.6778 41.2635 46.2851 42.166 46.2851C42.5436 46.2851 42.9062 46.1527 43.83 45.6773L45.0113 45.0697L46.1837 45.6773C47.1029 46.1539 47.4603 46.2851 47.8387 46.2851C48.7409 46.2851 49.5129 45.6777 49.7075 44.8148C49.7669 44.5517 49.7244 44.0201 49.5741 43.1462L49.3537 41.8638L50.2706 41.0009C50.7965 40.5059 51.2577 39.97 51.352 39.7442C51.6711 38.9804 51.5041 38.1651 50.9157 37.615C50.507 37.2328 50.2759 37.156 48.8939 36.9433L47.719 36.7622L47.1125 35.5666C46.4924 34.3439 46.2237 34.0421 45.547 33.8087C45.0122 33.6243 44.7827 33.6518 44.1403 33.9772ZM45.8153 36.6157C46.1744 37.3129 46.5897 37.9718 46.7382 38.08C46.9124 38.2068 47.4857 38.3499 48.3544 38.4833C49.0949 38.597 49.7488 38.7197 49.8077 38.7561C50.0295 38.8931 49.8894 39.1064 48.9993 39.9867C47.6483 41.3227 47.6398 41.3504 47.9737 43.3006C48.1771 44.4882 48.1717 44.6832 47.9359 44.6832C47.8559 44.6832 47.2046 44.3949 46.4885 44.0424C45.7725 43.69 45.1007 43.4017 44.9956 43.4017C44.8905 43.4017 44.2285 43.69 43.5244 44.0424C42.2144 44.6982 41.955 44.7791 41.8804 44.5554C41.8569 44.485 41.9246 43.9204 42.0307 43.3006C42.3646 41.3504 42.3561 41.3227 41.0051 39.9867C40.115 39.1064 39.9749 38.8931 40.1967 38.7561C40.2556 38.7197 40.9044 38.5977 41.6388 38.485C42.3878 38.37 43.0943 38.2011 43.2483 38.1003C43.4149 37.991 43.7553 37.4551 44.1143 36.7364C44.7722 35.4199 44.8749 35.2627 45.0449 35.3132C45.1095 35.3324 45.4562 35.9185 45.8153 36.6157ZM28.5027 37.5211C27.329 37.8069 26.5231 38.8615 26.5293 40.1035C26.5319 40.6211 26.8405 41.3946 27.2011 41.7872C27.5435 42.1601 28.4339 42.5451 28.9565 42.5463C29.5242 42.5476 29.8376 42.269 29.8376 41.7629C29.8376 41.3183 29.6034 41.0967 28.9871 40.9582C28.4363 40.8345 28.1347 40.5057 28.1312 40.0254C28.1278 39.5379 28.4856 39.1437 29.0073 39.0603C29.5645 38.9713 29.8376 38.6982 29.8376 38.23C29.8376 37.9617 29.7624 37.8048 29.5562 37.6427C29.2646 37.4133 29.0483 37.3883 28.5027 37.5211ZM60.4589 37.6342C60.2421 37.8047 60.1668 37.9583 60.1668 38.23C60.1668 38.6982 60.4399 38.9713 60.9971 39.0603C61.5188 39.1437 61.8766 39.5379 61.8732 40.0254C61.8698 40.5057 61.5681 40.8345 61.0173 40.9582C60.401 41.0967 60.1668 41.3183 60.1668 41.7629C60.1668 42.5473 60.997 42.7803 62.0482 42.2908C63.5375 41.5973 63.9438 39.6425 62.8614 38.3779C62.4275 37.871 61.8938 37.5759 61.2306 37.4765C60.8329 37.4168 60.7009 37.4438 60.4589 37.6342ZM31.8389 49.569C31.4242 50.0019 31.2258 50.5722 31.2268 51.3277C31.2294 53.0061 32.8204 54.1983 34.4297 53.7274C34.7527 53.6328 35.1829 53.4166 35.3855 53.2471C35.6862 52.9953 35.7539 52.8644 35.7539 52.535C35.7539 52.2419 35.6862 52.0764 35.5071 51.9314C35.1795 51.6661 34.8917 51.6839 34.3763 52.0013C33.8325 52.3362 33.5658 52.3335 33.1564 51.989C32.7588 51.6544 32.713 51.1061 33.0414 50.6102C33.1581 50.434 33.2539 50.1576 33.2542 49.9962C33.2559 49.2945 32.3606 49.0243 31.8389 49.569ZM56.963 49.4889C56.6915 49.7605 56.6915 50.2002 56.963 50.6102C57.2914 51.1061 57.2456 51.6544 56.848 51.989C56.4341 52.3374 56.2124 52.3361 55.5827 51.9822C54.9975 51.6533 54.6084 51.691 54.3385 52.1027C54.0778 52.5006 54.2285 52.9648 54.7382 53.3341C56.4269 54.5574 58.7745 53.3913 58.7776 51.3277C58.7786 50.5722 58.5802 50.0019 58.1655 49.569C57.8201 49.2083 57.2796 49.1724 56.963 49.4889ZM42.6884 55.4239C42.4486 55.6638 42.4199 55.7658 42.464 56.2242C42.5286 56.8959 42.9933 57.6568 43.5989 58.0824C44.0274 58.3836 44.1251 58.4061 45.0022 58.4061C45.8793 58.4061 45.977 58.3836 46.4055 58.0824C47.0111 57.6568 47.4759 56.8959 47.5404 56.2242C47.5845 55.7658 47.5558 55.6638 47.316 55.4239C47.162 55.2699 46.9191 55.1489 46.7643 55.1489C46.4314 55.1489 45.9633 55.586 45.9633 55.8969C45.9633 56.2035 45.6881 56.7107 45.478 56.7913C45.2557 56.8765 44.7487 56.8765 44.5264 56.7913C44.3163 56.7107 44.0411 56.2035 44.0411 55.8969C44.0411 55.586 43.573 55.1489 43.2401 55.1489C43.0853 55.1489 42.8424 55.2699 42.6884 55.4239ZM54.8013 64.0468L54.8289 70.4351L54.5159 70.7481C53.9814 71.2826 53.7881 71.2145 51.469 69.674L49.3807 68.2867V64.4582V60.6296L49.9948 59.9858C50.3326 59.6317 50.8789 59.0531 51.209 58.6998C52.0079 57.845 52.611 57.6035 53.866 57.6354L54.7738 57.6586L54.8013 64.0468ZM43.3469 61.8436C43.7291 61.9476 44.397 62.0179 45.0022 62.0179C45.9057 62.0179 46.3209 61.9495 47.5385 61.6005L47.7788 61.5316V64.3296C47.7788 65.8685 47.7428 67.1116 47.6987 67.0919C47.6546 67.0724 47.2832 66.8882 46.8733 66.6826C46.1626 66.3262 46.0757 66.3088 45.0022 66.3088C43.9287 66.3088 43.8418 66.3262 43.1311 66.6826C42.7212 66.8882 42.3497 67.0724 42.3057 67.0919C42.2617 67.1116 42.2256 65.8685 42.2256 64.3296V61.5316L42.4659 61.6005C42.5981 61.6383 42.9945 61.7478 43.3469 61.8436Z" fill="url(#paint0_linear_416_1212)"/>
<defs>
<linearGradient id="paint0_linear_416_1212" x1="31.8587" y1="28.6848" x2="65.6895" y2="29.7792" gradientUnits="userSpaceOnUse">
<stop stop-color="#006FFB"/>
<stop offset="1" stop-color="#64E8A4"/>
</linearGradient>
</defs>
</svg>
