<svg width="90" height="90" viewBox="0 0 90 90" fill="none" xmlns="http://www.w3.org/2000/svg">
<path fill-rule="evenodd" clip-rule="evenodd" d="M0 20C0 8.9543 8.9543 0 20 0H70C81.0457 0 90 8.9543 90 20V70C90 81.0457 81.0457 90 70 90H20C8.9543 90 0 81.0457 0 70V20Z" fill="white"/>
<path fill-rule="evenodd" clip-rule="evenodd" d="M28.0587 23.1121C27.3462 23.2717 26.4316 23.6357 26.1212 23.8832C25.7215 24.2019 25.8516 24.8514 26.3467 25.0086C26.4334 25.0361 26.7704 24.9414 27.0989 24.7972C28.6522 24.1154 30.127 24.1142 31.5202 24.7936C32.8697 25.4515 33.9165 26.7653 34.2524 28.2223C34.433 29.0055 34.3784 30.0952 34.1199 30.868C33.9347 31.4215 33.4485 32.3587 33.3465 32.3587C33.3323 32.3587 33.2059 32.1556 33.0655 31.9072C32.7945 31.4278 32.0813 30.7048 31.7145 30.5376C31.5932 30.4823 31.5065 30.4147 31.5218 30.3875C31.9641 29.5984 32.0573 29.2818 32.0553 28.5749C32.0536 27.953 32.0193 27.7798 31.826 27.4139C31.5312 26.856 30.9635 26.3109 30.4235 26.0672C29.819 25.7946 28.7833 25.7955 28.219 26.0693C27.5896 26.3747 27.1457 26.81 26.8489 27.413C26.6159 27.8862 26.5777 28.0569 26.5777 28.6254C26.5777 29.2111 26.6119 29.3536 26.8754 29.8671L27.173 30.4473L26.9064 30.5757C26.4477 30.7968 25.858 31.3859 25.5989 31.8818C25.462 32.1439 25.3302 32.3583 25.3062 32.3585C25.1454 32.3592 24.5361 31.0395 24.3995 30.395C24.162 29.2745 24.2853 28.2652 24.8038 27.0839C25.0484 26.5265 25.0611 26.4543 24.9497 26.2557C24.7642 25.9246 24.4181 25.7863 24.1259 25.9263C23.8369 26.0648 23.405 26.9047 23.184 27.7579C22.9489 28.6657 22.9717 30.2238 23.2325 31.0657C24.0951 33.8515 26.4579 35.6304 29.3056 35.6382C30.3261 35.6409 31.1013 35.4777 31.9671 35.0777L32.5958 34.7872L34.0232 36.2173L35.4506 37.6474L35.0718 38.1909C34.3839 39.1779 33.5622 40.9345 33.5622 41.4182C33.5622 41.6771 33.9013 41.9902 34.1817 41.9902C34.5299 41.9902 34.73 41.7478 35.0695 40.9152C36.2373 38.051 38.6352 35.8024 41.5734 34.8164C42.8447 34.3899 43.3953 34.3076 44.9992 34.3043C46.3532 34.3017 46.5972 34.3246 47.4332 34.5334C49.5776 35.0691 51.3277 36.0808 52.7955 37.6332C55.891 40.9071 56.6155 45.6501 54.6365 49.6868C54.0259 50.9323 53.3331 51.882 52.3715 52.7911C48.2108 56.7255 41.8085 56.7225 37.6223 52.7843C35.5378 50.8234 34.4036 48.3025 34.276 45.3477C34.2267 44.2039 34.2066 44.0887 34.0252 43.9073C33.7848 43.6668 33.4774 43.6547 33.2063 43.875C33.0095 44.0348 33.0034 44.0777 33.0089 45.2724C33.0176 47.1747 33.4591 48.9106 34.3748 50.6423L34.8345 51.5119L33.2287 53.1161L31.6229 54.7203L30.9372 54.5428C29.9763 54.2941 28.6536 54.2942 27.7465 54.5431C25.0259 55.2895 23.1828 57.5343 23.012 60.3089C22.7807 64.0676 25.9323 67.2193 29.6908 66.988C33.0649 66.7803 35.6284 64.0673 35.6377 60.6942C35.6405 59.6736 35.4773 58.8984 35.0772 58.0326L34.7867 57.4038L36.2168 55.9799L37.6469 54.556L38.2814 54.9769C41.5729 57.1603 45.5078 57.6227 49.2315 56.2637C50.0294 55.9725 51.1994 55.358 51.8749 54.8753L52.3442 54.54L53.7779 55.9719L55.2117 57.4038L54.9212 58.0326C54.5214 58.8978 54.3584 59.6728 54.3582 60.7085C54.3577 64.0534 56.9417 66.7808 60.3076 66.988C62.157 67.1019 63.9423 66.401 65.2227 65.0587C68.5889 61.5294 66.9433 55.7582 62.2231 54.5394C61.3054 54.3024 59.9879 54.304 59.0612 54.5433L58.3755 54.7203L56.7697 53.1161L55.1639 51.5119L55.6209 50.6423C56.1637 49.6094 56.523 48.6159 56.7941 47.3976C57.0738 46.1409 57.075 43.9057 56.7966 42.619C56.4449 40.9931 55.8772 39.641 54.9758 38.282L54.5548 37.6474L55.9787 36.2173L57.4026 34.7872L58.0313 35.0777C58.8972 35.4778 59.6652 35.6391 60.6893 35.636C64.0702 35.6256 66.7786 33.0686 66.9864 29.6911C67.2179 25.9301 64.0684 22.7805 60.3076 23.012C57.533 23.1828 55.2884 25.026 54.542 27.7467C54.2931 28.6538 54.293 29.9766 54.5417 30.9375L54.7192 31.6232L53.115 33.2291L51.5109 34.8349L50.6413 34.3752C49.6868 33.8705 48.3673 33.4001 47.235 33.161C46.2108 32.9446 43.7876 32.9446 42.7634 33.161C41.6311 33.4001 40.3116 33.8705 39.3571 34.3752L38.4875 34.8349L36.8834 33.2291L35.2792 31.6232L35.4563 30.9375C35.6955 30.0107 35.6971 28.6932 35.4602 27.7755C34.8953 25.5875 33.3055 23.932 31.1114 23.2469C30.323 23.0007 28.8468 22.9356 28.0587 23.1121ZM61.8885 24.4449C62.8314 24.6862 63.5198 25.0804 64.2189 25.7796C65.4619 27.0225 65.9598 28.6921 65.5975 30.4018C65.4832 30.9413 64.8324 32.3587 64.699 32.3587C64.6664 32.3587 64.5548 32.1838 64.451 31.9702C64.2016 31.4568 63.6627 30.882 63.2016 30.6373L62.8293 30.4398L63.1249 29.8634C63.385 29.3566 63.4207 29.2086 63.4207 28.637C63.4207 27.5261 62.8603 26.6116 61.8799 26.1225C61.2165 25.7915 60.2381 25.7681 59.5749 26.0672C59.0349 26.3109 58.4672 26.856 58.1724 27.4139C57.9791 27.7798 57.9448 27.953 57.9431 28.5749C57.9411 29.2818 58.0343 29.5984 58.4766 30.3875C58.4919 30.4147 58.4052 30.4823 58.2839 30.5376C57.9171 30.7048 57.2039 31.4278 56.9329 31.9072C56.7925 32.1556 56.6452 32.3386 56.6053 32.3139C56.449 32.2173 56.0134 31.3392 55.8382 30.7678C55.6227 30.0646 55.5818 28.9347 55.746 28.2223C56.3796 25.4737 59.1793 23.7521 61.8885 24.4449ZM29.9075 27.2755C31.1978 27.871 31.0862 29.591 29.7284 30.0391C28.8007 30.3453 27.848 29.5859 27.8615 28.5511C27.8685 28.0169 28.1746 27.5453 28.6751 27.2975C29.1292 27.0727 29.4556 27.0669 29.9075 27.2755ZM61.4979 27.3959C62.5926 28.1204 62.1934 29.8809 60.8861 30.093C60.2933 30.1892 59.5396 29.7659 59.3052 29.2051C58.7398 27.8517 60.2739 26.5858 61.4979 27.3959ZM30.94 31.6149C31.6045 31.9244 32.1198 32.5937 32.1994 33.2509C32.2269 33.478 32.1838 33.5212 31.668 33.7844C30.8979 34.1773 30.2123 34.3433 29.3477 34.3463C28.4546 34.3494 27.649 34.1574 26.9749 33.7807C26.4862 33.5076 26.4686 33.4856 26.4881 33.1741C26.5139 32.7629 26.8583 32.1723 27.2435 31.8786C27.7437 31.497 28.0928 31.4206 29.3486 31.4174C30.3877 31.4147 30.5546 31.4354 30.94 31.6149ZM62.1334 31.5354C62.8547 31.7928 63.4694 32.5246 63.5103 33.1741C63.5298 33.4856 63.5122 33.5076 63.0235 33.7807C61.9235 34.3953 60.3599 34.5319 59.1321 34.1204C58.7608 33.9959 58.2981 33.7939 58.1038 33.6712C57.7573 33.4525 57.7521 33.442 57.8269 33.1094C57.9816 32.4209 58.4189 31.9003 59.102 31.5915C59.4306 31.4428 59.6638 31.4168 60.6498 31.4184C61.3971 31.4196 61.9257 31.4613 62.1334 31.5354ZM36.0854 34.2369L37.4456 35.5992L36.8583 36.1262L36.271 36.6533L34.9468 35.3313L33.6226 34.0093L34.1298 33.442C34.4088 33.1301 34.6569 32.8747 34.6811 32.8747C34.7053 32.8746 35.3373 33.4877 36.0854 34.2369ZM55.8682 33.4416L56.3751 34.0086L55.0521 35.3338C54.3244 36.0626 53.7029 36.6492 53.671 36.6372C53.6391 36.6253 53.3743 36.387 53.0824 36.1078L52.5517 35.6003L53.9125 34.2374C54.661 33.4879 55.2931 32.8746 55.3173 32.8747C55.3415 32.8747 55.5894 33.1299 55.8682 33.4416ZM43.5765 35.9172C40.1891 36.4724 37.3668 38.8705 36.2773 42.1192C34.8321 46.428 36.8661 51.233 41.0006 53.277C42.1854 53.8628 43.5095 54.1528 44.9992 54.1528C46.2291 54.1528 46.7695 54.0704 47.8799 53.7137C50.5883 52.8435 52.8365 50.5942 53.71 47.8808C54.0692 46.765 54.1516 46.2272 54.1516 45C54.1516 43.7729 54.0692 43.235 53.71 42.1192C52.8569 39.4693 50.6534 37.2245 48.0209 36.3233C46.6834 35.8656 44.8908 35.7017 43.5765 35.9172ZM46.934 37.3441C47.6895 37.5374 48.8149 38.0442 49.4501 38.477C50.0413 38.8799 50.9802 39.8029 51.4118 40.4054C51.9094 41.1001 52.4363 42.2191 52.664 43.0651C52.9272 44.0424 52.929 45.9531 52.6677 46.9163C52.4703 47.6439 51.9483 48.8218 51.5887 49.3509L51.3626 49.6837V49.3669C51.3626 47.7052 50.1499 46.2004 48.5307 45.8532C48.2903 45.8017 48.1119 45.7301 48.1341 45.6942C48.1562 45.6583 48.3084 45.4299 48.472 45.1867C50.1852 42.6408 48.6705 39.2174 45.6069 38.7115C44.37 38.5073 43.0766 38.9267 42.1246 39.8408C40.6176 41.2879 40.3732 43.4729 41.5264 45.1867C41.69 45.4299 41.8422 45.6583 41.8643 45.6942C41.8865 45.7301 41.7104 45.8011 41.473 45.852C39.8548 46.1991 38.6358 47.7093 38.6358 49.3669V49.6837L38.4148 49.3584C38.0445 48.8136 37.5301 47.6614 37.3326 46.9349C37.0671 45.9576 37.0681 44.0573 37.3347 43.0651C37.5619 42.2197 38.0886 41.1006 38.5866 40.4054C39.0131 39.8099 39.9565 38.8798 40.5276 38.4919C41.4657 37.8546 42.7393 37.3491 43.8383 37.1778C44.6057 37.0582 46.1384 37.1405 46.934 37.3441ZM46.2169 40.2403C48.0442 41.0605 48.4694 43.4814 47.0389 44.9199C46.4646 45.4974 45.8772 45.731 44.9992 45.731C44.3913 45.731 44.1886 45.6934 43.7953 45.5079C43.1965 45.2254 42.6641 44.6922 42.3576 44.0682C42.1505 43.6464 42.1193 43.4831 42.1249 42.8501C42.1326 41.9783 42.3113 41.509 42.8632 40.9101C43.7354 39.964 45.0265 39.7061 46.2169 40.2403ZM48.8382 47.2975C49.3221 47.5563 49.7922 48.1283 49.9457 48.6452C50.0261 48.9159 50.0728 49.4418 50.0728 50.0769V51.0807L49.5783 51.4256C49.3063 51.6153 48.9618 51.8328 48.8126 51.909L48.5413 52.0475L48.5116 51.225C48.4848 50.4829 48.462 50.3862 48.2789 50.2381C48.0389 50.0438 47.6781 50.0254 47.4449 50.1955C47.2984 50.3025 47.2728 50.4571 47.235 51.4622L47.192 52.6071L46.719 52.7255C46.0873 52.8836 43.9111 52.8836 43.2794 52.7255L42.8064 52.6071L42.7634 51.4622C42.7256 50.4571 42.7 50.3025 42.5535 50.1955C42.3203 50.0254 41.9595 50.0438 41.7195 50.2381C41.5364 50.3862 41.5136 50.4829 41.4868 51.225L41.4571 52.0475L41.1858 51.909C41.0366 51.8328 40.692 51.6153 40.4201 51.4256L39.9256 51.0807V50.0769C39.9256 49.4418 39.9723 48.9159 40.0527 48.6452C40.2578 47.9543 40.849 47.3646 41.559 47.1423C41.6775 47.1053 43.2837 47.0821 45.1282 47.0909C48.4107 47.1065 48.4895 47.1109 48.8382 47.2975ZM36.1808 53.1398L36.6925 53.6919L35.3649 55.0217C34.6347 55.753 34.0175 56.3496 33.9932 56.3474C33.969 56.3451 33.6983 56.1128 33.3916 55.831L32.8341 55.3187L34.2076 53.9431C34.9629 53.1866 35.6008 52.5722 35.625 52.5777C35.6492 52.5833 35.8993 52.8362 36.1808 53.1398ZM55.7908 53.9431L57.1643 55.3187L56.6068 55.831C56.3002 56.1128 56.0294 56.3451 56.0052 56.3474C55.9809 56.3496 55.3637 55.753 54.6335 55.0217L53.3059 53.6919L53.8176 53.1398C54.0991 52.8362 54.3492 52.5833 54.3734 52.5777C54.3976 52.5722 55.0355 53.1866 55.7908 53.9431ZM30.887 55.8916C32.4613 56.4086 33.5517 57.491 34.0996 59.0803C34.5896 60.5023 34.3687 62.2203 33.5387 63.442L33.3275 63.7528L33.2146 63.4804C33.0273 63.028 32.4668 62.3878 31.9686 62.0569C31.71 61.8853 31.4984 61.7327 31.4984 61.7178C31.4984 61.7029 31.5912 61.554 31.7046 61.387C32.3639 60.4154 32.1416 58.7668 31.2417 57.9538C30.6974 57.4619 30.2472 57.2737 29.5096 57.2297C28.5556 57.1727 28.0724 57.3544 27.4061 58.0207C27.0133 58.4136 26.8431 58.6624 26.7247 59.0173C26.446 59.8522 26.5697 60.8693 27.0283 61.5134L27.2056 61.7621L26.8791 61.9287C26.4539 62.1456 25.6864 62.9609 25.4861 63.4085L25.3284 63.7607L25.1569 63.5173C24.6511 62.7995 24.274 61.5937 24.2765 60.7019C24.2864 57.2588 27.6336 54.8231 30.887 55.8916ZM61.8107 55.7646C63.6089 56.1394 65.2084 57.7628 65.6001 59.6107C65.8786 60.9247 65.5805 62.482 64.8555 63.5002L64.6701 63.7607L64.5123 63.4085C64.312 62.9609 63.5445 62.1456 63.1193 61.9287L62.7928 61.7621L62.9701 61.5134C63.4287 60.8693 63.5524 59.8522 63.2737 59.0173C63.1553 58.6624 62.9851 58.4136 62.5923 58.0207C61.926 57.3544 61.4428 57.1727 60.4888 57.2297C59.7512 57.2737 59.301 57.4619 58.7567 57.9538C57.8568 58.7668 57.6345 60.4154 58.2938 61.387C58.4072 61.554 58.5 61.7019 58.5 61.7155C58.5 61.729 58.308 61.8646 58.0733 62.0167C57.5701 62.3427 57.091 62.8727 56.8409 63.3801L56.6613 63.7441L56.5014 63.5091C55.9067 62.6353 55.6565 61.7886 55.6533 60.6401C55.6497 59.3328 56.0789 58.2262 56.9661 57.2555C58.1842 55.9226 59.9547 55.3778 61.8107 55.7646ZM30.1926 58.7479C30.7916 59.1745 30.9681 59.9814 30.6105 60.6592C30.1352 61.5603 28.8635 61.6967 28.2075 60.917C27.5986 60.1933 27.7791 59.1813 28.61 58.6589C28.9817 58.4253 29.8044 58.4715 30.1926 58.7479ZM61.3318 58.6272C62.3386 59.1479 62.4188 60.5014 61.4841 61.1992C61.1259 61.4667 60.3535 61.4842 59.9189 61.2348C59.5111 61.0008 59.188 60.429 59.188 59.9415C59.188 59.3741 59.6091 58.7606 60.1339 58.5634C60.391 58.4667 61.094 58.5042 61.3318 58.6272ZM30.4035 62.7705C31.1979 62.9018 32.0048 63.673 32.1853 64.4736C32.2525 64.7713 32.2403 64.7968 31.9417 64.9816C30.4527 65.9027 28.5123 65.9537 26.9353 65.113C26.3467 64.7993 26.3194 64.7042 26.6301 64.048C27.0825 63.0928 27.805 62.7219 29.2196 62.7188C29.6926 62.7178 30.2254 62.741 30.4035 62.7705ZM62.0152 62.8489C62.2784 62.9271 62.6124 63.1149 62.8183 63.3004C63.178 63.6246 63.5712 64.3331 63.5727 64.6595C63.5746 65.0547 61.7886 65.7249 60.7338 65.7249C59.8198 65.7249 58.7959 65.4408 58.0567 64.9821C57.7582 64.7969 57.7459 64.7712 57.8131 64.4736C57.9843 63.7142 58.8196 62.8835 59.5201 62.7757C60.1384 62.6806 61.592 62.7232 62.0152 62.8489Z" fill="black"/>
<path fill-rule="evenodd" clip-rule="evenodd" d="M28.0587 23.1121C27.3462 23.2717 26.4316 23.6357 26.1212 23.8832C25.7215 24.2019 25.8516 24.8514 26.3467 25.0086C26.4334 25.0361 26.7704 24.9414 27.0989 24.7972C28.6522 24.1154 30.127 24.1142 31.5202 24.7936C32.8697 25.4515 33.9165 26.7653 34.2524 28.2223C34.433 29.0055 34.3784 30.0952 34.1199 30.868C33.9347 31.4215 33.4485 32.3587 33.3465 32.3587C33.3323 32.3587 33.2059 32.1556 33.0655 31.9072C32.7945 31.4278 32.0813 30.7048 31.7145 30.5376C31.5932 30.4823 31.5065 30.4147 31.5218 30.3875C31.9641 29.5984 32.0573 29.2818 32.0553 28.5749C32.0536 27.953 32.0193 27.7798 31.826 27.4139C31.5312 26.856 30.9635 26.3109 30.4235 26.0672C29.819 25.7946 28.7833 25.7955 28.219 26.0693C27.5896 26.3747 27.1457 26.81 26.8489 27.413C26.6159 27.8862 26.5777 28.0569 26.5777 28.6254C26.5777 29.2111 26.6119 29.3536 26.8754 29.8671L27.173 30.4473L26.9064 30.5757C26.4477 30.7968 25.858 31.3859 25.5989 31.8818C25.462 32.1439 25.3302 32.3583 25.3062 32.3585C25.1454 32.3592 24.5361 31.0395 24.3995 30.395C24.162 29.2745 24.2853 28.2652 24.8038 27.0839C25.0484 26.5265 25.0611 26.4543 24.9497 26.2557C24.7642 25.9246 24.4181 25.7863 24.1259 25.9263C23.8369 26.0648 23.405 26.9047 23.184 27.7579C22.9489 28.6657 22.9717 30.2238 23.2325 31.0657C24.0951 33.8515 26.4579 35.6304 29.3056 35.6382C30.3261 35.6409 31.1013 35.4777 31.9671 35.0777L32.5958 34.7872L34.0232 36.2173L35.4506 37.6474L35.0718 38.1909C34.3839 39.1779 33.5622 40.9345 33.5622 41.4182C33.5622 41.6771 33.9013 41.9902 34.1817 41.9902C34.5299 41.9902 34.73 41.7478 35.0695 40.9152C36.2373 38.051 38.6352 35.8024 41.5734 34.8164C42.8447 34.3899 43.3953 34.3076 44.9992 34.3043C46.3532 34.3017 46.5972 34.3246 47.4332 34.5334C49.5776 35.0691 51.3277 36.0808 52.7955 37.6332C55.891 40.9071 56.6155 45.6501 54.6365 49.6868C54.0259 50.9323 53.3331 51.882 52.3715 52.7911C48.2108 56.7255 41.8085 56.7225 37.6223 52.7843C35.5378 50.8234 34.4036 48.3025 34.276 45.3477C34.2267 44.2039 34.2066 44.0887 34.0252 43.9073C33.7848 43.6668 33.4774 43.6547 33.2063 43.875C33.0095 44.0348 33.0034 44.0777 33.0089 45.2724C33.0176 47.1747 33.4591 48.9106 34.3748 50.6423L34.8345 51.5119L33.2287 53.1161L31.6229 54.7203L30.9372 54.5428C29.9763 54.2941 28.6536 54.2942 27.7465 54.5431C25.0259 55.2895 23.1828 57.5343 23.012 60.3089C22.7807 64.0676 25.9323 67.2193 29.6908 66.988C33.0649 66.7803 35.6284 64.0673 35.6377 60.6942C35.6405 59.6736 35.4773 58.8984 35.0772 58.0326L34.7867 57.4038L36.2168 55.9799L37.6469 54.556L38.2814 54.9769C41.5729 57.1603 45.5078 57.6227 49.2315 56.2637C50.0294 55.9725 51.1994 55.358 51.8749 54.8753L52.3442 54.54L53.7779 55.9719L55.2117 57.4038L54.9212 58.0326C54.5214 58.8978 54.3584 59.6728 54.3582 60.7085C54.3577 64.0534 56.9417 66.7808 60.3076 66.988C62.157 67.1019 63.9423 66.401 65.2227 65.0587C68.5889 61.5294 66.9433 55.7582 62.2231 54.5394C61.3054 54.3024 59.9879 54.304 59.0612 54.5433L58.3755 54.7203L56.7697 53.1161L55.1639 51.5119L55.6209 50.6423C56.1637 49.6094 56.523 48.6159 56.7941 47.3976C57.0738 46.1409 57.075 43.9057 56.7966 42.619C56.4449 40.9931 55.8772 39.641 54.9758 38.282L54.5548 37.6474L55.9787 36.2173L57.4026 34.7872L58.0313 35.0777C58.8972 35.4778 59.6652 35.6391 60.6893 35.636C64.0702 35.6256 66.7786 33.0686 66.9864 29.6911C67.2179 25.9301 64.0684 22.7805 60.3076 23.012C57.533 23.1828 55.2884 25.026 54.542 27.7467C54.2931 28.6538 54.293 29.9766 54.5417 30.9375L54.7192 31.6232L53.115 33.2291L51.5109 34.8349L50.6413 34.3752C49.6868 33.8705 48.3673 33.4001 47.235 33.161C46.2108 32.9446 43.7876 32.9446 42.7634 33.161C41.6311 33.4001 40.3116 33.8705 39.3571 34.3752L38.4875 34.8349L36.8834 33.2291L35.2792 31.6232L35.4563 30.9375C35.6955 30.0107 35.6971 28.6932 35.4602 27.7755C34.8953 25.5875 33.3055 23.932 31.1114 23.2469C30.323 23.0007 28.8468 22.9356 28.0587 23.1121ZM61.8885 24.4449C62.8314 24.6862 63.5198 25.0804 64.2189 25.7796C65.4619 27.0225 65.9598 28.6921 65.5975 30.4018C65.4832 30.9413 64.8324 32.3587 64.699 32.3587C64.6664 32.3587 64.5548 32.1838 64.451 31.9702C64.2016 31.4568 63.6627 30.882 63.2016 30.6373L62.8293 30.4398L63.1249 29.8634C63.385 29.3566 63.4207 29.2086 63.4207 28.637C63.4207 27.5261 62.8603 26.6116 61.8799 26.1225C61.2165 25.7915 60.2381 25.7681 59.5749 26.0672C59.0349 26.3109 58.4672 26.856 58.1724 27.4139C57.9791 27.7798 57.9448 27.953 57.9431 28.5749C57.9411 29.2818 58.0343 29.5984 58.4766 30.3875C58.4919 30.4147 58.4052 30.4823 58.2839 30.5376C57.9171 30.7048 57.2039 31.4278 56.9329 31.9072C56.7925 32.1556 56.6452 32.3386 56.6053 32.3139C56.449 32.2173 56.0134 31.3392 55.8382 30.7678C55.6227 30.0646 55.5818 28.9347 55.746 28.2223C56.3796 25.4737 59.1793 23.7521 61.8885 24.4449ZM29.9075 27.2755C31.1978 27.871 31.0862 29.591 29.7284 30.0391C28.8007 30.3453 27.848 29.5859 27.8615 28.5511C27.8685 28.0169 28.1746 27.5453 28.6751 27.2975C29.1292 27.0727 29.4556 27.0669 29.9075 27.2755ZM61.4979 27.3959C62.5926 28.1204 62.1934 29.8809 60.8861 30.093C60.2933 30.1892 59.5396 29.7659 59.3052 29.2051C58.7398 27.8517 60.2739 26.5858 61.4979 27.3959ZM30.94 31.6149C31.6045 31.9244 32.1198 32.5937 32.1994 33.2509C32.2269 33.478 32.1838 33.5212 31.668 33.7844C30.8979 34.1773 30.2123 34.3433 29.3477 34.3463C28.4546 34.3494 27.649 34.1574 26.9749 33.7807C26.4862 33.5076 26.4686 33.4856 26.4881 33.1741C26.5139 32.7629 26.8583 32.1723 27.2435 31.8786C27.7437 31.497 28.0928 31.4206 29.3486 31.4174C30.3877 31.4147 30.5546 31.4354 30.94 31.6149ZM62.1334 31.5354C62.8547 31.7928 63.4694 32.5246 63.5103 33.1741C63.5298 33.4856 63.5122 33.5076 63.0235 33.7807C61.9235 34.3953 60.3599 34.5319 59.1321 34.1204C58.7608 33.9959 58.2981 33.7939 58.1038 33.6712C57.7573 33.4525 57.7521 33.442 57.8269 33.1094C57.9816 32.4209 58.4189 31.9003 59.102 31.5915C59.4306 31.4428 59.6638 31.4168 60.6498 31.4184C61.3971 31.4196 61.9257 31.4613 62.1334 31.5354ZM36.0854 34.2369L37.4456 35.5992L36.8583 36.1262L36.271 36.6533L34.9468 35.3313L33.6226 34.0093L34.1298 33.442C34.4088 33.1301 34.6569 32.8747 34.6811 32.8747C34.7053 32.8746 35.3373 33.4877 36.0854 34.2369ZM55.8682 33.4416L56.3751 34.0086L55.0521 35.3338C54.3244 36.0626 53.7029 36.6492 53.671 36.6372C53.6391 36.6253 53.3743 36.387 53.0824 36.1078L52.5517 35.6003L53.9125 34.2374C54.661 33.4879 55.2931 32.8746 55.3173 32.8747C55.3415 32.8747 55.5894 33.1299 55.8682 33.4416ZM43.5765 35.9172C40.1891 36.4724 37.3668 38.8705 36.2773 42.1192C34.8321 46.428 36.8661 51.233 41.0006 53.277C42.1854 53.8628 43.5095 54.1528 44.9992 54.1528C46.2291 54.1528 46.7695 54.0704 47.8799 53.7137C50.5883 52.8435 52.8365 50.5942 53.71 47.8808C54.0692 46.765 54.1516 46.2272 54.1516 45C54.1516 43.7729 54.0692 43.235 53.71 42.1192C52.8569 39.4693 50.6534 37.2245 48.0209 36.3233C46.6834 35.8656 44.8908 35.7017 43.5765 35.9172ZM46.934 37.3441C47.6895 37.5374 48.8149 38.0442 49.4501 38.477C50.0413 38.8799 50.9802 39.8029 51.4118 40.4054C51.9094 41.1001 52.4363 42.2191 52.664 43.0651C52.9272 44.0424 52.929 45.9531 52.6677 46.9163C52.4703 47.6439 51.9483 48.8218 51.5887 49.3509L51.3626 49.6837V49.3669C51.3626 47.7052 50.1499 46.2004 48.5307 45.8532C48.2903 45.8017 48.1119 45.7301 48.1341 45.6942C48.1562 45.6583 48.3084 45.4299 48.472 45.1867C50.1852 42.6408 48.6705 39.2174 45.6069 38.7115C44.37 38.5073 43.0766 38.9267 42.1246 39.8408C40.6176 41.2879 40.3732 43.4729 41.5264 45.1867C41.69 45.4299 41.8422 45.6583 41.8643 45.6942C41.8865 45.7301 41.7104 45.8011 41.473 45.852C39.8548 46.1991 38.6358 47.7093 38.6358 49.3669V49.6837L38.4148 49.3584C38.0445 48.8136 37.5301 47.6614 37.3326 46.9349C37.0671 45.9576 37.0681 44.0573 37.3347 43.0651C37.5619 42.2197 38.0886 41.1006 38.5866 40.4054C39.0131 39.8099 39.9565 38.8798 40.5276 38.4919C41.4657 37.8546 42.7393 37.3491 43.8383 37.1778C44.6057 37.0582 46.1384 37.1405 46.934 37.3441ZM46.2169 40.2403C48.0442 41.0605 48.4694 43.4814 47.0389 44.9199C46.4646 45.4974 45.8772 45.731 44.9992 45.731C44.3913 45.731 44.1886 45.6934 43.7953 45.5079C43.1965 45.2254 42.6641 44.6922 42.3576 44.0682C42.1505 43.6464 42.1193 43.4831 42.1249 42.8501C42.1326 41.9783 42.3113 41.509 42.8632 40.9101C43.7354 39.964 45.0265 39.7061 46.2169 40.2403ZM48.8382 47.2975C49.3221 47.5563 49.7922 48.1283 49.9457 48.6452C50.0261 48.9159 50.0728 49.4418 50.0728 50.0769V51.0807L49.5783 51.4256C49.3063 51.6153 48.9618 51.8328 48.8126 51.909L48.5413 52.0475L48.5116 51.225C48.4848 50.4829 48.462 50.3862 48.2789 50.2381C48.0389 50.0438 47.6781 50.0254 47.4449 50.1955C47.2984 50.3025 47.2728 50.4571 47.235 51.4622L47.192 52.6071L46.719 52.7255C46.0873 52.8836 43.9111 52.8836 43.2794 52.7255L42.8064 52.6071L42.7634 51.4622C42.7256 50.4571 42.7 50.3025 42.5535 50.1955C42.3203 50.0254 41.9595 50.0438 41.7195 50.2381C41.5364 50.3862 41.5136 50.4829 41.4868 51.225L41.4571 52.0475L41.1858 51.909C41.0366 51.8328 40.692 51.6153 40.4201 51.4256L39.9256 51.0807V50.0769C39.9256 49.4418 39.9723 48.9159 40.0527 48.6452C40.2578 47.9543 40.849 47.3646 41.559 47.1423C41.6775 47.1053 43.2837 47.0821 45.1282 47.0909C48.4107 47.1065 48.4895 47.1109 48.8382 47.2975ZM36.1808 53.1398L36.6925 53.6919L35.3649 55.0217C34.6347 55.753 34.0175 56.3496 33.9932 56.3474C33.969 56.3451 33.6983 56.1128 33.3916 55.831L32.8341 55.3187L34.2076 53.9431C34.9629 53.1866 35.6008 52.5722 35.625 52.5777C35.6492 52.5833 35.8993 52.8362 36.1808 53.1398ZM55.7908 53.9431L57.1643 55.3187L56.6068 55.831C56.3002 56.1128 56.0294 56.3451 56.0052 56.3474C55.9809 56.3496 55.3637 55.753 54.6335 55.0217L53.3059 53.6919L53.8176 53.1398C54.0991 52.8362 54.3492 52.5833 54.3734 52.5777C54.3976 52.5722 55.0355 53.1866 55.7908 53.9431ZM30.887 55.8916C32.4613 56.4086 33.5517 57.491 34.0996 59.0803C34.5896 60.5023 34.3687 62.2203 33.5387 63.442L33.3275 63.7528L33.2146 63.4804C33.0273 63.028 32.4668 62.3878 31.9686 62.0569C31.71 61.8853 31.4984 61.7327 31.4984 61.7178C31.4984 61.7029 31.5912 61.554 31.7046 61.387C32.3639 60.4154 32.1416 58.7668 31.2417 57.9538C30.6974 57.4619 30.2472 57.2737 29.5096 57.2297C28.5556 57.1727 28.0724 57.3544 27.4061 58.0207C27.0133 58.4136 26.8431 58.6624 26.7247 59.0173C26.446 59.8522 26.5697 60.8693 27.0283 61.5134L27.2056 61.7621L26.8791 61.9287C26.4539 62.1456 25.6864 62.9609 25.4861 63.4085L25.3284 63.7607L25.1569 63.5173C24.6511 62.7995 24.274 61.5937 24.2765 60.7019C24.2864 57.2588 27.6336 54.8231 30.887 55.8916ZM61.8107 55.7646C63.6089 56.1394 65.2084 57.7628 65.6001 59.6107C65.8786 60.9247 65.5805 62.482 64.8555 63.5002L64.6701 63.7607L64.5123 63.4085C64.312 62.9609 63.5445 62.1456 63.1193 61.9287L62.7928 61.7621L62.9701 61.5134C63.4287 60.8693 63.5524 59.8522 63.2737 59.0173C63.1553 58.6624 62.9851 58.4136 62.5923 58.0207C61.926 57.3544 61.4428 57.1727 60.4888 57.2297C59.7512 57.2737 59.301 57.4619 58.7567 57.9538C57.8568 58.7668 57.6345 60.4154 58.2938 61.387C58.4072 61.554 58.5 61.7019 58.5 61.7155C58.5 61.729 58.308 61.8646 58.0733 62.0167C57.5701 62.3427 57.091 62.8727 56.8409 63.3801L56.6613 63.7441L56.5014 63.5091C55.9067 62.6353 55.6565 61.7886 55.6533 60.6401C55.6497 59.3328 56.0789 58.2262 56.9661 57.2555C58.1842 55.9226 59.9547 55.3778 61.8107 55.7646ZM30.1926 58.7479C30.7916 59.1745 30.9681 59.9814 30.6105 60.6592C30.1352 61.5603 28.8635 61.6967 28.2075 60.917C27.5986 60.1933 27.7791 59.1813 28.61 58.6589C28.9817 58.4253 29.8044 58.4715 30.1926 58.7479ZM61.3318 58.6272C62.3386 59.1479 62.4188 60.5014 61.4841 61.1992C61.1259 61.4667 60.3535 61.4842 59.9189 61.2348C59.5111 61.0008 59.188 60.429 59.188 59.9415C59.188 59.3741 59.6091 58.7606 60.1339 58.5634C60.391 58.4667 61.094 58.5042 61.3318 58.6272ZM30.4035 62.7705C31.1979 62.9018 32.0048 63.673 32.1853 64.4736C32.2525 64.7713 32.2403 64.7968 31.9417 64.9816C30.4527 65.9027 28.5123 65.9537 26.9353 65.113C26.3467 64.7993 26.3194 64.7042 26.6301 64.048C27.0825 63.0928 27.805 62.7219 29.2196 62.7188C29.6926 62.7178 30.2254 62.741 30.4035 62.7705ZM62.0152 62.8489C62.2784 62.9271 62.6124 63.1149 62.8183 63.3004C63.178 63.6246 63.5712 64.3331 63.5727 64.6595C63.5746 65.0547 61.7886 65.7249 60.7338 65.7249C59.8198 65.7249 58.7959 65.4408 58.0567 64.9821C57.7582 64.7969 57.7459 64.7712 57.8131 64.4736C57.9843 63.7142 58.8196 62.8835 59.5201 62.7757C60.1384 62.6806 61.592 62.7232 62.0152 62.8489Z" fill="url(#paint0_linear_416_1200)"/>
<defs>
<linearGradient id="paint0_linear_416_1200" x1="31.8587" y1="31.6026" x2="65.6704" y2="32.9611" gradientUnits="userSpaceOnUse">
<stop stop-color="#006FFB"/>
<stop offset="1" stop-color="#64E8A4"/>
</linearGradient>
</defs>
</svg>
